<?xml version="1.0" encoding="UTF-8" standalone="no"?>
<!DOCTYPE svg PUBLIC "-//W3C//DTD SVG 1.0//EN" "http://www.w3.org/TR/2001/PR-SVG-20010719/DTD/svg10.dtd">
<svg width="18cm" height="13cm" viewBox="317 37 342 256" xmlns="http://www.w3.org/2000/svg" xmlns:xlink="http://www.w3.org/1999/xlink">
  <g>
    <line style="fill: none; fill-opacity:0; stroke-width: 2; stroke: #000000" x1="486" y1="39" x2="486" y2="97"/>
    <path style="fill: #000000" d="M 486 39 C 488.5,39 491,41.5 491,44 C 491,46.5 488.5,49 486,49 C 483.5,49 481,46.5 481,44 C 481,41.5 483.5,39 486,39z"/>
    <path style="fill: none; fill-opacity:0; stroke-width: 2; stroke: #000000" d="M 486 39 C 488.5,39 491,41.5 491,44 C 491,46.5 488.5,49 486,49 C 483.5,49 481,46.5 481,44 C 481,41.5 483.5,39 486,39"/>
    <path style="fill: #000000" d="M 486 97 C 483.5,97 481,94.5 481,92 C 481,89.5 483.5,87 486,87 C 488.5,87 491,89.5 491,92 C 491,94.5 488.5,97 486,97z"/>
    <path style="fill: none; fill-opacity:0; stroke-width: 2; stroke: #000000" d="M 486 97 C 483.5,97 481,94.5 481,92 C 481,89.5 483.5,87 486,87 C 488.5,87 491,89.5 491,92 C 491,94.5 488.5,97 486,97"/>
  </g>
  <g>
    <line style="fill: none; fill-opacity:0; stroke-width: 2; stroke: #000000" x1="428" y1="95" x2="489" y2="43"/>
    <path style="fill: #000000" d="M 428 95 C 426.378,93.0975 426.659,89.5731 428.561,87.9513 C 430.464,86.3294 433.988,86.6101 435.61,88.5127 C 437.232,90.4152 436.951,93.9396 435.049,95.5614 C 433.146,97.1832 429.622,96.9025 428,95z"/>
    <path style="fill: none; fill-opacity:0; stroke-width: 2; stroke: #000000" d="M 428 95 C 426.378,93.0975 426.659,89.5731 428.561,87.9513 C 430.464,86.3294 433.988,86.6101 435.61,88.5127 C 437.232,90.4152 436.951,93.9396 435.049,95.5614 C 433.146,97.1832 429.622,96.9025 428,95"/>
    <path style="fill: #000000" d="M 489 43 C 490.622,44.9025 490.341,48.4269 488.439,50.0487 C 486.536,51.6706 483.012,51.3899 481.39,49.4873 C 479.768,47.5848 480.049,44.0604 481.951,42.4386 C 483.854,40.8168 487.378,41.0975 489,43z"/>
    <path style="fill: none; fill-opacity:0; stroke-width: 2; stroke: #000000" d="M 489 43 C 490.622,44.9025 490.341,48.4269 488.439,50.0487 C 486.536,51.6706 483.012,51.3899 481.39,49.4873 C 479.768,47.5848 480.049,44.0604 481.951,42.4386 C 483.854,40.8168 487.378,41.0975 489,43"/>
  </g>
  <g>
    <line style="fill: none; fill-opacity:0; stroke-width: 2; stroke: #000000" x1="545" y1="95" x2="482" y2="41"/>
    <path style="fill: #000000" d="M 545 95 C 543.373,96.8981 539.848,97.1693 537.95,95.5423 C 536.052,93.9153 535.78,90.3902 537.407,88.4921 C 539.034,86.5939 542.56,86.3228 544.458,87.9498 C 546.356,89.5767 546.627,93.1019 545,95z"/>
    <path style="fill: none; fill-opacity:0; stroke-width: 2; stroke: #000000" d="M 545 95 C 543.373,96.8981 539.848,97.1693 537.95,95.5423 C 536.052,93.9153 535.78,90.3902 537.407,88.4921 C 539.034,86.5939 542.56,86.3228 544.458,87.9498 C 546.356,89.5767 546.627,93.1019 545,95"/>
    <path style="fill: #000000" d="M 482 41 C 483.627,39.1019 487.152,38.8307 489.05,40.4577 C 490.948,42.0847 491.22,45.6098 489.593,47.5079 C 487.966,49.4061 484.44,49.6772 482.542,48.0502 C 480.644,46.4233 480.373,42.8981 482,41z"/>
    <path style="fill: none; fill-opacity:0; stroke-width: 2; stroke: #000000" d="M 482 41 C 483.627,39.1019 487.152,38.8307 489.05,40.4577 C 490.948,42.0847 491.22,45.6098 489.593,47.5079 C 487.966,49.4061 484.44,49.6772 482.542,48.0502 C 480.644,46.4233 480.373,42.8981 482,41"/>
  </g>
  <g>
    <line style="fill: none; fill-opacity:0; stroke-width: 2; stroke: #000000" x1="432.01" y1="88.4142" x2="432.01" y2="146.414"/>
    <path style="fill: #000000" d="M 432.01 88.4142 C 434.51,88.4142 437.01,90.9142 437.01,93.4142 C 437.01,95.9142 434.51,98.4142 432.01,98.4142 C 429.51,98.4142 427.01,95.9142 427.01,93.4142 C 427.01,90.9142 429.51,88.4142 432.01,88.4142z"/>
    <path style="fill: none; fill-opacity:0; stroke-width: 2; stroke: #000000" d="M 432.01 88.4142 C 434.51,88.4142 437.01,90.9142 437.01,93.4142 C 437.01,95.9142 434.51,98.4142 432.01,98.4142 C 429.51,98.4142 427.01,95.9142 427.01,93.4142 C 427.01,90.9142 429.51,88.4142 432.01,88.4142"/>
    <path style="fill: #000000" d="M 432.01 146.414 C 429.51,146.414 427.01,143.914 427.01,141.414 C 427.01,138.914 429.51,136.414 432.01,136.414 C 434.51,136.414 437.01,138.914 437.01,141.414 C 437.01,143.914 434.51,146.414 432.01,146.414z"/>
    <path style="fill: none; fill-opacity:0; stroke-width: 2; stroke: #000000" d="M 432.01 146.414 C 429.51,146.414 427.01,143.914 427.01,141.414 C 427.01,138.914 429.51,136.414 432.01,136.414 C 434.51,136.414 437.01,138.914 437.01,141.414 C 437.01,143.914 434.51,146.414 432.01,146.414"/>
  </g>
  <g>
    <line style="fill: none; fill-opacity:0; stroke-width: 2; stroke: #000000" x1="374.01" y1="144.414" x2="435.01" y2="92.4142"/>
    <path style="fill: #000000" d="M 374.01 144.414 C 372.388,142.512 372.669,138.987 374.571,137.365 C 376.474,135.744 379.998,136.024 381.62,137.927 C 383.242,139.829 382.961,143.354 381.058,144.976 C 379.156,146.597 375.632,146.317 374.01,144.414z"/>
    <path style="fill: none; fill-opacity:0; stroke-width: 2; stroke: #000000" d="M 374.01 144.414 C 372.388,142.512 372.669,138.987 374.571,137.365 C 376.474,135.744 379.998,136.024 381.62,137.927 C 383.242,139.829 382.961,143.354 381.058,144.976 C 379.156,146.597 375.632,146.317 374.01,144.414"/>
    <path style="fill: #000000" d="M 435.01 92.4142 C 436.632,94.3168 436.351,97.8411 434.448,99.463 C 432.546,101.085 429.021,100.804 427.4,98.9016 C 425.778,96.999 426.058,93.4746 427.961,91.8528 C 429.864,90.231 433.388,90.5117 435.01,92.4142z"/>
    <path style="fill: none; fill-opacity:0; stroke-width: 2; stroke: #000000" d="M 435.01 92.4142 C 436.632,94.3168 436.351,97.8411 434.448,99.463 C 432.546,101.085 429.021,100.804 427.4,98.9016 C 425.778,96.999 426.058,93.4746 427.961,91.8528 C 429.864,90.231 433.388,90.5117 435.01,92.4142"/>
  </g>
  <g>
    <line style="fill: none; fill-opacity:0; stroke-width: 2; stroke: #000000" x1="459" y1="147" x2="428.01" y2="90.4142"/>
    <path style="fill: #000000" d="M 459 147 C 456.807,148.201 453.414,147.209 452.213,145.016 C 451.012,142.824 452.004,139.43 454.197,138.229 C 456.389,137.028 459.783,138.02 460.984,140.213 C 462.185,142.406 461.193,145.799 459,147z"/>
    <path style="fill: none; fill-opacity:0; stroke-width: 2; stroke: #000000" d="M 459 147 C 456.807,148.201 453.414,147.209 452.213,145.016 C 451.012,142.824 452.004,139.43 454.197,138.229 C 456.389,137.028 459.783,138.02 460.984,140.213 C 462.185,142.406 461.193,145.799 459,147"/>
    <path style="fill: #000000" d="M 428.01 90.4142 C 430.202,89.2133 433.596,90.2052 434.797,92.3979 C 435.998,94.5906 435.006,97.9841 432.813,99.185 C 430.621,100.386 427.227,99.394 426.026,97.2013 C 424.825,95.0086 425.817,91.6151 428.01,90.4142z"/>
    <path style="fill: none; fill-opacity:0; stroke-width: 2; stroke: #000000" d="M 428.01 90.4142 C 430.202,89.2133 433.596,90.2052 434.797,92.3979 C 435.998,94.5906 435.006,97.9841 432.813,99.185 C 430.621,100.386 427.227,99.394 426.026,97.2013 C 424.825,95.0086 425.817,91.6151 428.01,90.4142"/>
  </g>
  <g>
    <line style="fill: none; fill-opacity:0; stroke-width: 2; stroke: #000000" x1="539.61" y1="84.4142" x2="539.61" y2="142.414"/>
    <path style="fill: #000000" d="M 539.61 84.4142 C 542.11,84.4142 544.61,86.9142 544.61,89.4142 C 544.61,91.9142 542.11,94.4142 539.61,94.4142 C 537.11,94.4142 534.61,91.9142 534.61,89.4142 C 534.61,86.9142 537.11,84.4142 539.61,84.4142z"/>
    <path style="fill: none; fill-opacity:0; stroke-width: 2; stroke: #000000" d="M 539.61 84.4142 C 542.11,84.4142 544.61,86.9142 544.61,89.4142 C 544.61,91.9142 542.11,94.4142 539.61,94.4142 C 537.11,94.4142 534.61,91.9142 534.61,89.4142 C 534.61,86.9142 537.11,84.4142 539.61,84.4142"/>
    <path style="fill: #000000" d="M 539.61 142.414 C 537.11,142.414 534.61,139.914 534.61,137.414 C 534.61,134.914 537.11,132.414 539.61,132.414 C 542.11,132.414 544.61,134.914 544.61,137.414 C 544.61,139.914 542.11,142.414 539.61,142.414z"/>
    <path style="fill: none; fill-opacity:0; stroke-width: 2; stroke: #000000" d="M 539.61 142.414 C 537.11,142.414 534.61,139.914 534.61,137.414 C 534.61,134.914 537.11,132.414 539.61,132.414 C 542.11,132.414 544.61,134.914 544.61,137.414 C 544.61,139.914 542.11,142.414 539.61,142.414"/>
  </g>
  <g>
    <line style="fill: none; fill-opacity:0; stroke-width: 2; stroke: #000000" x1="521" y1="143" x2="542.61" y2="88.4142"/>
    <path style="fill: #000000" d="M 521 143 C 518.676,142.08 517.271,138.835 518.192,136.511 C 519.112,134.186 522.356,132.782 524.681,133.702 C 527.005,134.622 528.41,137.867 527.489,140.192 C 526.569,142.516 523.324,143.92 521,143z"/>
    <path style="fill: none; fill-opacity:0; stroke-width: 2; stroke: #000000" d="M 521 143 C 518.676,142.08 517.271,138.835 518.192,136.511 C 519.112,134.186 522.356,132.782 524.681,133.702 C 527.005,134.622 528.41,137.867 527.489,140.192 C 526.569,142.516 523.324,143.92 521,143"/>
    <path style="fill: #000000" d="M 542.61 88.4142 C 544.934,89.3344 546.338,92.5791 545.418,94.9036 C 544.498,97.2281 541.253,98.6323 538.929,97.7121 C 536.604,96.7919 535.2,93.5472 536.12,91.2227 C 537.041,88.8982 540.285,87.494 542.61,88.4142z"/>
    <path style="fill: none; fill-opacity:0; stroke-width: 2; stroke: #000000" d="M 542.61 88.4142 C 544.934,89.3344 546.338,92.5791 545.418,94.9036 C 544.498,97.2281 541.253,98.6323 538.929,97.7121 C 536.604,96.7919 535.2,93.5472 536.12,91.2227 C 537.041,88.8982 540.285,87.494 542.61,88.4142"/>
  </g>
  <g>
    <line style="fill: none; fill-opacity:0; stroke-width: 2; stroke: #000000" x1="599.61" y1="142.414" x2="536.61" y2="88.4142"/>
    <path style="fill: #000000" d="M 599.61 142.414 C 597.983,144.312 594.458,144.584 592.56,142.957 C 590.661,141.33 590.39,137.804 592.017,135.906 C 593.644,134.008 597.169,133.737 599.067,135.364 C 600.966,136.991 601.237,140.516 599.61,142.414z"/>
    <path style="fill: none; fill-opacity:0; stroke-width: 2; stroke: #000000" d="M 599.61 142.414 C 597.983,144.312 594.458,144.584 592.56,142.957 C 590.661,141.33 590.39,137.804 592.017,135.906 C 593.644,134.008 597.169,133.737 599.067,135.364 C 600.966,136.991 601.237,140.516 599.61,142.414"/>
    <path style="fill: #000000" d="M 536.61 88.4142 C 538.237,86.5161 541.762,86.2449 543.66,87.8719 C 545.558,89.4989 545.829,93.024 544.202,94.9221 C 542.575,96.8203 539.05,97.0914 537.152,95.4645 C 535.254,93.8375 534.983,90.3124 536.61,88.4142z"/>
    <path style="fill: none; fill-opacity:0; stroke-width: 2; stroke: #000000" d="M 536.61 88.4142 C 538.237,86.5161 541.762,86.2449 543.66,87.8719 C 545.558,89.4989 545.829,93.024 544.202,94.9221 C 542.575,96.8203 539.05,97.0914 537.152,95.4645 C 535.254,93.8375 534.983,90.3124 536.61,88.4142"/>
  </g>
  <g>
    <line style="fill: none; fill-opacity:0; stroke-width: 2; stroke: #000000" x1="511" y1="146" x2="485" y2="86"/>
    <path style="fill: #000000" d="M 511 146 C 508.706,146.994 505.418,145.694 504.424,143.4 C 503.43,141.106 504.73,137.818 507.024,136.824 C 509.318,135.83 512.606,137.13 513.6,139.424 C 514.594,141.718 513.294,145.006 511,146z"/>
    <path style="fill: none; fill-opacity:0; stroke-width: 2; stroke: #000000" d="M 511 146 C 508.706,146.994 505.418,145.694 504.424,143.4 C 503.43,141.106 504.73,137.818 507.024,136.824 C 509.318,135.83 512.606,137.13 513.6,139.424 C 514.594,141.718 513.294,145.006 511,146"/>
    <path style="fill: #000000" d="M 485 86 C 487.294,85.006 490.582,86.3059 491.576,88.5997 C 492.57,90.8936 491.27,94.1815 488.976,95.1756 C 486.682,96.1696 483.394,94.8697 482.4,92.5758 C 481.406,90.2819 482.706,86.994 485,86z"/>
    <path style="fill: none; fill-opacity:0; stroke-width: 2; stroke: #000000" d="M 485 86 C 487.294,85.006 490.582,86.3059 491.576,88.5997 C 492.57,90.8936 491.27,94.1815 488.976,95.1756 C 486.682,96.1696 483.394,94.8697 482.4,92.5758 C 481.406,90.2819 482.706,86.994 485,86"/>
  </g>
  <g>
    <line style="fill: none; fill-opacity:0; stroke-width: 2; stroke: #000000" x1="378.01" y1="139.414" x2="378.01" y2="197.414"/>
    <path style="fill: #000000" d="M 378.01 139.414 C 380.51,139.414 383.01,141.914 383.01,144.414 C 383.01,146.914 380.51,149.414 378.01,149.414 C 375.51,149.414 373.01,146.914 373.01,144.414 C 373.01,141.914 375.51,139.414 378.01,139.414z"/>
    <path style="fill: none; fill-opacity:0; stroke-width: 2; stroke: #000000" d="M 378.01 139.414 C 380.51,139.414 383.01,141.914 383.01,144.414 C 383.01,146.914 380.51,149.414 378.01,149.414 C 375.51,149.414 373.01,146.914 373.01,144.414 C 373.01,141.914 375.51,139.414 378.01,139.414"/>
    <path style="fill: #000000" d="M 378.01 197.414 C 375.51,197.414 373.01,194.914 373.01,192.414 C 373.01,189.914 375.51,187.414 378.01,187.414 C 380.51,187.414 383.01,189.914 383.01,192.414 C 383.01,194.914 380.51,197.414 378.01,197.414z"/>
    <path style="fill: none; fill-opacity:0; stroke-width: 2; stroke: #000000" d="M 378.01 197.414 C 375.51,197.414 373.01,194.914 373.01,192.414 C 373.01,189.914 375.51,187.414 378.01,187.414 C 380.51,187.414 383.01,189.914 383.01,192.414 C 383.01,194.914 380.51,197.414 378.01,197.414"/>
  </g>
  <g>
    <line style="fill: none; fill-opacity:0; stroke-width: 2; stroke: #000000" x1="320.01" y1="195.414" x2="381.01" y2="143.414"/>
    <path style="fill: #000000" d="M 320.01 195.414 C 318.388,193.512 318.669,189.987 320.571,188.365 C 322.474,186.744 325.998,187.024 327.62,188.927 C 329.242,190.829 328.961,194.354 327.058,195.976 C 325.156,197.597 321.632,197.317 320.01,195.414z"/>
    <path style="fill: none; fill-opacity:0; stroke-width: 2; stroke: #000000" d="M 320.01 195.414 C 318.388,193.512 318.669,189.987 320.571,188.365 C 322.474,186.744 325.998,187.024 327.62,188.927 C 329.242,190.829 328.961,194.354 327.058,195.976 C 325.156,197.597 321.632,197.317 320.01,195.414"/>
    <path style="fill: #000000" d="M 381.01 143.414 C 382.632,145.317 382.351,148.841 380.448,150.463 C 378.546,152.085 375.021,151.804 373.4,149.902 C 371.778,147.999 372.058,144.475 373.961,142.853 C 375.864,141.231 379.388,141.512 381.01,143.414z"/>
    <path style="fill: none; fill-opacity:0; stroke-width: 2; stroke: #000000" d="M 381.01 143.414 C 382.632,145.317 382.351,148.841 380.448,150.463 C 378.546,152.085 375.021,151.804 373.4,149.902 C 371.778,147.999 372.058,144.475 373.961,142.853 C 375.864,141.231 379.388,141.512 381.01,143.414"/>
  </g>
  <g>
    <line style="fill: none; fill-opacity:0; stroke-width: 2; stroke: #000000" x1="403" y1="196" x2="374.01" y2="141.414"/>
    <path style="fill: #000000" d="M 403 196 C 400.792,197.173 397.412,196.137 396.239,193.929 C 395.066,191.721 396.102,188.341 398.31,187.168 C 400.517,185.996 403.898,187.031 405.071,189.239 C 406.243,191.447 405.208,194.827 403,196z"/>
    <path style="fill: none; fill-opacity:0; stroke-width: 2; stroke: #000000" d="M 403 196 C 400.792,197.173 397.412,196.137 396.239,193.929 C 395.066,191.721 396.102,188.341 398.31,187.168 C 400.517,185.996 403.898,187.031 405.071,189.239 C 406.243,191.447 405.208,194.827 403,196"/>
    <path style="fill: #000000" d="M 374.01 141.414 C 376.218,140.242 379.598,141.277 380.771,143.485 C 381.943,145.693 380.908,149.073 378.7,150.246 C 376.492,151.419 373.112,150.383 371.939,148.175 C 370.767,145.967 371.802,142.587 374.01,141.414z"/>
    <path style="fill: none; fill-opacity:0; stroke-width: 2; stroke: #000000" d="M 374.01 141.414 C 376.218,140.242 379.598,141.277 380.771,143.485 C 381.943,145.693 380.908,149.073 378.7,150.246 C 376.492,151.419 373.112,150.383 371.939,148.175 C 370.767,145.967 371.802,142.587 374.01,141.414"/>
  </g>
  <g>
    <line style="fill: none; fill-opacity:0; stroke-width: 2; stroke: #000000" x1="457.01" y1="139.414" x2="457.01" y2="197.414"/>
    <path style="fill: #000000" d="M 457.01 139.414 C 459.51,139.414 462.01,141.914 462.01,144.414 C 462.01,146.914 459.51,149.414 457.01,149.414 C 454.51,149.414 452.01,146.914 452.01,144.414 C 452.01,141.914 454.51,139.414 457.01,139.414z"/>
    <path style="fill: none; fill-opacity:0; stroke-width: 2; stroke: #000000" d="M 457.01 139.414 C 459.51,139.414 462.01,141.914 462.01,144.414 C 462.01,146.914 459.51,149.414 457.01,149.414 C 454.51,149.414 452.01,146.914 452.01,144.414 C 452.01,141.914 454.51,139.414 457.01,139.414"/>
    <path style="fill: #000000" d="M 457.01 197.414 C 454.51,197.414 452.01,194.914 452.01,192.414 C 452.01,189.914 454.51,187.414 457.01,187.414 C 459.51,187.414 462.01,189.914 462.01,192.414 C 462.01,194.914 459.51,197.414 457.01,197.414z"/>
    <path style="fill: none; fill-opacity:0; stroke-width: 2; stroke: #000000" d="M 457.01 197.414 C 454.51,197.414 452.01,194.914 452.01,192.414 C 452.01,189.914 454.51,187.414 457.01,187.414 C 459.51,187.414 462.01,189.914 462.01,192.414 C 462.01,194.914 459.51,197.414 457.01,197.414"/>
  </g>
  <g>
    <line style="fill: none; fill-opacity:0; stroke-width: 2; stroke: #000000" x1="428" y1="195" x2="460.01" y2="143.414"/>
    <path style="fill: #000000" d="M 428 195 C 425.876,193.682 425.07,190.239 426.388,188.115 C 427.706,185.991 431.148,185.185 433.273,186.503 C 435.397,187.821 436.203,191.263 434.885,193.388 C 433.567,195.512 430.124,196.318 428,195z"/>
    <path style="fill: none; fill-opacity:0; stroke-width: 2; stroke: #000000" d="M 428 195 C 425.876,193.682 425.07,190.239 426.388,188.115 C 427.706,185.991 431.148,185.185 433.273,186.503 C 435.397,187.821 436.203,191.263 434.885,193.388 C 433.567,195.512 430.124,196.318 428,195"/>
    <path style="fill: #000000" d="M 460.01 143.414 C 462.134,144.732 462.94,148.175 461.622,150.299 C 460.304,152.423 456.861,153.229 454.737,151.911 C 452.613,150.593 451.807,147.151 453.125,145.026 C 454.443,142.902 457.885,142.096 460.01,143.414z"/>
    <path style="fill: none; fill-opacity:0; stroke-width: 2; stroke: #000000" d="M 460.01 143.414 C 462.134,144.732 462.94,148.175 461.622,150.299 C 460.304,152.423 456.861,153.229 454.737,151.911 C 452.613,150.593 451.807,147.151 453.125,145.026 C 454.443,142.902 457.885,142.096 460.01,143.414"/>
  </g>
  <g>
    <line style="fill: none; fill-opacity:0; stroke-width: 2; stroke: #000000" x1="516.01" y1="195.414" x2="453.01" y2="141.414"/>
    <path style="fill: #000000" d="M 516.01 195.414 C 514.383,197.312 510.858,197.584 508.96,195.957 C 507.061,194.33 506.79,190.804 508.417,188.906 C 510.044,187.008 513.569,186.737 515.467,188.364 C 517.366,189.991 517.637,193.516 516.01,195.414z"/>
    <path style="fill: none; fill-opacity:0; stroke-width: 2; stroke: #000000" d="M 516.01 195.414 C 514.383,197.312 510.858,197.584 508.96,195.957 C 507.061,194.33 506.79,190.804 508.417,188.906 C 510.044,187.008 513.569,186.737 515.467,188.364 C 517.366,189.991 517.637,193.516 516.01,195.414"/>
    <path style="fill: #000000" d="M 453.01 141.414 C 454.637,139.516 458.162,139.245 460.06,140.872 C 461.958,142.499 462.229,146.024 460.602,147.922 C 458.975,149.82 455.45,150.091 453.552,148.464 C 451.654,146.837 451.383,143.312 453.01,141.414z"/>
    <path style="fill: none; fill-opacity:0; stroke-width: 2; stroke: #000000" d="M 453.01 141.414 C 454.637,139.516 458.162,139.245 460.06,140.872 C 461.958,142.499 462.229,146.024 460.602,147.922 C 458.975,149.82 455.45,150.091 453.552,148.464 C 451.654,146.837 451.383,143.312 453.01,141.414"/>
  </g>
  <g>
    <line style="fill: none; fill-opacity:0; stroke-width: 2; stroke: #000000" x1="540.61" y1="190.414" x2="601.61" y2="138.414"/>
    <path style="fill: #000000" d="M 540.61 190.414 C 538.988,188.512 539.269,184.987 541.171,183.365 C 543.074,181.744 546.598,182.024 548.22,183.927 C 549.842,185.829 549.561,189.354 547.658,190.976 C 545.756,192.597 542.232,192.317 540.61,190.414z"/>
    <path style="fill: none; fill-opacity:0; stroke-width: 2; stroke: #000000" d="M 540.61 190.414 C 538.988,188.512 539.269,184.987 541.171,183.365 C 543.074,181.744 546.598,182.024 548.22,183.927 C 549.842,185.829 549.561,189.354 547.658,190.976 C 545.756,192.597 542.232,192.317 540.61,190.414"/>
    <path style="fill: #000000" d="M 601.61 138.414 C 603.232,140.317 602.951,143.841 601.048,145.463 C 599.146,147.085 595.621,146.804 594,144.902 C 592.378,142.999 592.658,139.475 594.561,137.853 C 596.464,136.231 599.988,136.512 601.61,138.414z"/>
    <path style="fill: none; fill-opacity:0; stroke-width: 2; stroke: #000000" d="M 601.61 138.414 C 603.232,140.317 602.951,143.841 601.048,145.463 C 599.146,147.085 595.621,146.804 594,144.902 C 592.378,142.999 592.658,139.475 594.561,137.853 C 596.464,136.231 599.988,136.512 601.61,138.414"/>
  </g>
  <g>
    <line style="fill: none; fill-opacity:0; stroke-width: 2; stroke: #000000" x1="657.61" y1="190.414" x2="594.61" y2="136.414"/>
    <path style="fill: #000000" d="M 657.61 190.414 C 655.983,192.312 652.458,192.584 650.56,190.957 C 648.661,189.33 648.39,185.804 650.017,183.906 C 651.644,182.008 655.169,181.737 657.067,183.364 C 658.966,184.991 659.237,188.516 657.61,190.414z"/>
    <path style="fill: none; fill-opacity:0; stroke-width: 2; stroke: #000000" d="M 657.61 190.414 C 655.983,192.312 652.458,192.584 650.56,190.957 C 648.661,189.33 648.39,185.804 650.017,183.906 C 651.644,182.008 655.169,181.737 657.067,183.364 C 658.966,184.991 659.237,188.516 657.61,190.414"/>
    <path style="fill: #000000" d="M 594.61 136.414 C 596.237,134.516 599.762,134.245 601.66,135.872 C 603.558,137.499 603.829,141.024 602.202,142.922 C 600.575,144.82 597.05,145.091 595.152,143.464 C 593.254,141.837 592.983,138.312 594.61,136.414z"/>
    <path style="fill: none; fill-opacity:0; stroke-width: 2; stroke: #000000" d="M 594.61 136.414 C 596.237,134.516 599.762,134.245 601.66,135.872 C 603.558,137.499 603.829,141.024 602.202,142.922 C 600.575,144.82 597.05,145.091 595.152,143.464 C 593.254,141.837 592.983,138.312 594.61,136.414"/>
  </g>
  <g>
    <line style="fill: none; fill-opacity:0; stroke-width: 2; stroke: #000000" x1="377.21" y1="186.414" x2="377.21" y2="244.414"/>
    <path style="fill: #000000" d="M 377.21 186.414 C 379.71,186.414 382.21,188.914 382.21,191.414 C 382.21,193.914 379.71,196.414 377.21,196.414 C 374.71,196.414 372.21,193.914 372.21,191.414 C 372.21,188.914 374.71,186.414 377.21,186.414z"/>
    <path style="fill: none; fill-opacity:0; stroke-width: 2; stroke: #000000" d="M 377.21 186.414 C 379.71,186.414 382.21,188.914 382.21,191.414 C 382.21,193.914 379.71,196.414 377.21,196.414 C 374.71,196.414 372.21,193.914 372.21,191.414 C 372.21,188.914 374.71,186.414 377.21,186.414"/>
    <path style="fill: #000000" d="M 377.21 244.414 C 374.71,244.414 372.21,241.914 372.21,239.414 C 372.21,236.914 374.71,234.414 377.21,234.414 C 379.71,234.414 382.21,236.914 382.21,239.414 C 382.21,241.914 379.71,244.414 377.21,244.414z"/>
    <path style="fill: none; fill-opacity:0; stroke-width: 2; stroke: #000000" d="M 377.21 244.414 C 374.71,244.414 372.21,241.914 372.21,239.414 C 372.21,236.914 374.71,234.414 377.21,234.414 C 379.71,234.414 382.21,236.914 382.21,239.414 C 382.21,241.914 379.71,244.414 377.21,244.414"/>
  </g>
  <g>
    <line style="fill: none; fill-opacity:0; stroke-width: 2; stroke: #000000" x1="319.21" y1="242.414" x2="380.21" y2="190.414"/>
    <path style="fill: #000000" d="M 319.21 242.414 C 317.588,240.512 317.869,236.987 319.771,235.365 C 321.674,233.744 325.198,234.024 326.82,235.927 C 328.442,237.829 328.161,241.354 326.258,242.976 C 324.356,244.597 320.832,244.317 319.21,242.414z"/>
    <path style="fill: none; fill-opacity:0; stroke-width: 2; stroke: #000000" d="M 319.21 242.414 C 317.588,240.512 317.869,236.987 319.771,235.365 C 321.674,233.744 325.198,234.024 326.82,235.927 C 328.442,237.829 328.161,241.354 326.258,242.976 C 324.356,244.597 320.832,244.317 319.21,242.414"/>
    <path style="fill: #000000" d="M 380.21 190.414 C 381.832,192.317 381.551,195.841 379.648,197.463 C 377.746,199.085 374.221,198.804 372.6,196.902 C 370.978,194.999 371.258,191.475 373.161,189.853 C 375.064,188.231 378.588,188.512 380.21,190.414z"/>
    <path style="fill: none; fill-opacity:0; stroke-width: 2; stroke: #000000" d="M 380.21 190.414 C 381.832,192.317 381.551,195.841 379.648,197.463 C 377.746,199.085 374.221,198.804 372.6,196.902 C 370.978,194.999 371.258,191.475 373.161,189.853 C 375.064,188.231 378.588,188.512 380.21,190.414"/>
  </g>
  <g>
    <line style="fill: none; fill-opacity:0; stroke-width: 2; stroke: #000000" x1="436.21" y1="242.414" x2="373.21" y2="188.414"/>
    <path style="fill: #000000" d="M 436.21 242.414 C 434.583,244.312 431.058,244.584 429.16,242.957 C 427.261,241.33 426.99,237.804 428.617,235.906 C 430.244,234.008 433.769,233.737 435.667,235.364 C 437.566,236.991 437.837,240.516 436.21,242.414z"/>
    <path style="fill: none; fill-opacity:0; stroke-width: 2; stroke: #000000" d="M 436.21 242.414 C 434.583,244.312 431.058,244.584 429.16,242.957 C 427.261,241.33 426.99,237.804 428.617,235.906 C 430.244,234.008 433.769,233.737 435.667,235.364 C 437.566,236.991 437.837,240.516 436.21,242.414"/>
    <path style="fill: #000000" d="M 373.21 188.414 C 374.837,186.516 378.362,186.245 380.26,187.872 C 382.158,189.499 382.429,193.024 380.802,194.922 C 379.175,196.82 375.65,197.091 373.752,195.464 C 371.854,193.837 371.583,190.312 373.21,188.414z"/>
    <path style="fill: none; fill-opacity:0; stroke-width: 2; stroke: #000000" d="M 373.21 188.414 C 374.837,186.516 378.362,186.245 380.26,187.872 C 382.158,189.499 382.429,193.024 380.802,194.922 C 379.175,196.82 375.65,197.091 373.752,195.464 C 371.854,193.837 371.583,190.312 373.21,188.414"/>
  </g>
  <g>
    <line style="fill: none; fill-opacity:0; stroke-width: 2; stroke: #000000" x1="513.81" y1="186.414" x2="513.81" y2="244.414"/>
    <path style="fill: #000000" d="M 513.81 186.414 C 516.31,186.414 518.81,188.914 518.81,191.414 C 518.81,193.914 516.31,196.414 513.81,196.414 C 511.31,196.414 508.81,193.914 508.81,191.414 C 508.81,188.914 511.31,186.414 513.81,186.414z"/>
    <path style="fill: none; fill-opacity:0; stroke-width: 2; stroke: #000000" d="M 513.81 186.414 C 516.31,186.414 518.81,188.914 518.81,191.414 C 518.81,193.914 516.31,196.414 513.81,196.414 C 511.31,196.414 508.81,193.914 508.81,191.414 C 508.81,188.914 511.31,186.414 513.81,186.414"/>
    <path style="fill: #000000" d="M 513.81 244.414 C 511.31,244.414 508.81,241.914 508.81,239.414 C 508.81,236.914 511.31,234.414 513.81,234.414 C 516.31,234.414 518.81,236.914 518.81,239.414 C 518.81,241.914 516.31,244.414 513.81,244.414z"/>
    <path style="fill: none; fill-opacity:0; stroke-width: 2; stroke: #000000" d="M 513.81 244.414 C 511.31,244.414 508.81,241.914 508.81,239.414 C 508.81,236.914 511.31,234.414 513.81,234.414 C 516.31,234.414 518.81,236.914 518.81,239.414 C 518.81,241.914 516.31,244.414 513.81,244.414"/>
  </g>
  <g>
    <line style="fill: none; fill-opacity:0; stroke-width: 2; stroke: #000000" x1="455.81" y1="242.414" x2="516.81" y2="190.414"/>
    <path style="fill: #000000" d="M 455.81 242.414 C 454.188,240.512 454.469,236.987 456.371,235.365 C 458.274,233.744 461.798,234.024 463.42,235.927 C 465.042,237.829 464.761,241.354 462.858,242.976 C 460.956,244.597 457.432,244.317 455.81,242.414z"/>
    <path style="fill: none; fill-opacity:0; stroke-width: 2; stroke: #000000" d="M 455.81 242.414 C 454.188,240.512 454.469,236.987 456.371,235.365 C 458.274,233.744 461.798,234.024 463.42,235.927 C 465.042,237.829 464.761,241.354 462.858,242.976 C 460.956,244.597 457.432,244.317 455.81,242.414"/>
    <path style="fill: #000000" d="M 516.81 190.414 C 518.432,192.317 518.151,195.841 516.248,197.463 C 514.346,199.085 510.821,198.804 509.2,196.902 C 507.578,194.999 507.858,191.475 509.761,189.853 C 511.664,188.231 515.188,188.512 516.81,190.414z"/>
    <path style="fill: none; fill-opacity:0; stroke-width: 2; stroke: #000000" d="M 516.81 190.414 C 518.432,192.317 518.151,195.841 516.248,197.463 C 514.346,199.085 510.821,198.804 509.2,196.902 C 507.578,194.999 507.858,191.475 509.761,189.853 C 511.664,188.231 515.188,188.512 516.81,190.414"/>
  </g>
  <g>
    <line style="fill: none; fill-opacity:0; stroke-width: 2; stroke: #000000" x1="538" y1="242" x2="509.81" y2="188.414"/>
    <path style="fill: #000000" d="M 538 242 C 535.787,243.164 532.411,242.115 531.247,239.903 C 530.083,237.69 531.132,234.314 533.344,233.15 C 535.557,231.986 538.933,233.035 540.097,235.247 C 541.261,237.46 540.213,240.836 538,242z"/>
    <path style="fill: none; fill-opacity:0; stroke-width: 2; stroke: #000000" d="M 538 242 C 535.787,243.164 532.411,242.115 531.247,239.903 C 530.083,237.69 531.132,234.314 533.344,233.15 C 535.557,231.986 538.933,233.035 540.097,235.247 C 541.261,237.46 540.213,240.836 538,242"/>
    <path style="fill: #000000" d="M 509.81 188.414 C 512.022,187.25 515.399,188.299 516.563,190.511 C 517.727,192.724 516.678,196.1 514.466,197.264 C 512.253,198.428 508.877,197.38 507.713,195.167 C 506.549,192.955 507.597,189.578 509.81,188.414z"/>
    <path style="fill: none; fill-opacity:0; stroke-width: 2; stroke: #000000" d="M 509.81 188.414 C 512.022,187.25 515.399,188.299 516.563,190.511 C 517.727,192.724 516.678,196.1 514.466,197.264 C 512.253,198.428 508.877,197.38 507.713,195.167 C 506.549,192.955 507.597,189.578 509.81,188.414"/>
  </g>
  <g>
    <line style="fill: none; fill-opacity:0; stroke-width: 2; stroke: #ff0000" x1="598.61" y1="134.414" x2="598.61" y2="192.414"/>
    <path style="fill: #ff0000" d="M 598.61 134.414 C 601.11,134.414 603.61,136.914 603.61,139.414 C 603.61,141.914 601.11,144.414 598.61,144.414 C 596.11,144.414 593.61,141.914 593.61,139.414 C 593.61,136.914 596.11,134.414 598.61,134.414z"/>
    <path style="fill: none; fill-opacity:0; stroke-width: 2; stroke: #ff0000" d="M 598.61 134.414 C 601.11,134.414 603.61,136.914 603.61,139.414 C 603.61,141.914 601.11,144.414 598.61,144.414 C 596.11,144.414 593.61,141.914 593.61,139.414 C 593.61,136.914 596.11,134.414 598.61,134.414"/>
    <path style="fill: #ff0000" d="M 598.61 192.414 C 596.11,192.414 593.61,189.914 593.61,187.414 C 593.61,184.914 596.11,182.414 598.61,182.414 C 601.11,182.414 603.61,184.914 603.61,187.414 C 603.61,189.914 601.11,192.414 598.61,192.414z"/>
    <path style="fill: none; fill-opacity:0; stroke-width: 2; stroke: #ff0000" d="M 598.61 192.414 C 596.11,192.414 593.61,189.914 593.61,187.414 C 593.61,184.914 596.11,182.414 598.61,182.414 C 601.11,182.414 603.61,184.914 603.61,187.414 C 603.61,189.914 601.11,192.414 598.61,192.414"/>
  </g>
  <g>
    <line style="fill: none; fill-opacity:0; stroke-width: 2; stroke: #ff0000" x1="558" y1="239" x2="603.41" y2="187.414"/>
    <path style="fill: #ff0000" d="M 558 239 C 556.123,237.348 555.899,233.82 557.551,231.943 C 559.203,230.067 562.731,229.842 564.607,231.494 C 566.484,233.146 566.709,236.674 565.057,238.551 C 563.405,240.427 559.877,240.652 558,239z"/>
    <path style="fill: none; fill-opacity:0; stroke-width: 2; stroke: #ff0000" d="M 558 239 C 556.123,237.348 555.899,233.82 557.551,231.943 C 559.203,230.067 562.731,229.842 564.607,231.494 C 566.484,233.146 566.709,236.674 565.057,238.551 C 563.405,240.427 559.877,240.652 558,239"/>
    <path style="fill: #ff0000" d="M 603.41 187.414 C 605.286,189.066 605.511,192.594 603.859,194.471 C 602.207,196.348 598.679,196.572 596.802,194.92 C 594.926,193.268 594.701,189.74 596.353,187.864 C 598.005,185.987 601.533,185.762 603.41,187.414z"/>
    <path style="fill: none; fill-opacity:0; stroke-width: 2; stroke: #ff0000" d="M 603.41 187.414 C 605.286,189.066 605.511,192.594 603.859,194.471 C 602.207,196.348 598.679,196.572 596.802,194.92 C 594.926,193.268 594.701,189.74 596.353,187.864 C 598.005,185.987 601.533,185.762 603.41,187.414"/>
  </g>
  <g>
    <line style="fill: none; fill-opacity:0; stroke-width: 2; stroke: #ff0000" x1="636" y1="240" x2="596.41" y2="185.414"/>
    <path style="fill: #ff0000" d="M 636 240 C 633.976,241.468 630.485,240.912 629.017,238.888 C 627.549,236.864 628.105,233.373 630.129,231.905 C 632.153,230.437 635.644,230.993 637.112,233.017 C 638.58,235.041 638.024,238.532 636,240z"/>
    <path style="fill: none; fill-opacity:0; stroke-width: 2; stroke: #ff0000" d="M 636 240 C 633.976,241.468 630.485,240.912 629.017,238.888 C 627.549,236.864 628.105,233.373 630.129,231.905 C 632.153,230.437 635.644,230.993 637.112,233.017 C 638.58,235.041 638.024,238.532 636,240"/>
    <path style="fill: #ff0000" d="M 596.41 185.414 C 598.434,183.946 601.925,184.502 603.393,186.526 C 604.861,188.55 604.305,192.041 602.281,193.509 C 600.257,194.977 596.766,194.421 595.298,192.397 C 593.83,190.374 594.386,186.882 596.41,185.414z"/>
    <path style="fill: none; fill-opacity:0; stroke-width: 2; stroke: #ff0000" d="M 596.41 185.414 C 598.434,183.946 601.925,184.502 603.393,186.526 C 604.861,188.55 604.305,192.041 602.281,193.509 C 600.257,194.977 596.766,194.421 595.298,192.397 C 593.83,190.374 594.386,186.882 596.41,185.414"/>
  </g>
  <g>
    <line style="fill: none; fill-opacity:0; stroke-width: 2; stroke: #ff0000" x1="563.01" y1="231.414" x2="563.01" y2="289.414"/>
    <path style="fill: #ff0000" d="M 563.01 231.414 C 565.51,231.414 568.01,233.914 568.01,236.414 C 568.01,238.914 565.51,241.414 563.01,241.414 C 560.51,241.414 558.01,238.914 558.01,236.414 C 558.01,233.914 560.51,231.414 563.01,231.414z"/>
    <path style="fill: none; fill-opacity:0; stroke-width: 2; stroke: #ff0000" d="M 563.01 231.414 C 565.51,231.414 568.01,233.914 568.01,236.414 C 568.01,238.914 565.51,241.414 563.01,241.414 C 560.51,241.414 558.01,238.914 558.01,236.414 C 558.01,233.914 560.51,231.414 563.01,231.414"/>
    <path style="fill: #ff0000" d="M 563.01 289.414 C 560.51,289.414 558.01,286.914 558.01,284.414 C 558.01,281.914 560.51,279.414 563.01,279.414 C 565.51,279.414 568.01,281.914 568.01,284.414 C 568.01,286.914 565.51,289.414 563.01,289.414z"/>
    <path style="fill: none; fill-opacity:0; stroke-width: 2; stroke: #ff0000" d="M 563.01 289.414 C 560.51,289.414 558.01,286.914 558.01,284.414 C 558.01,281.914 560.51,279.414 563.01,279.414 C 565.51,279.414 568.01,281.914 568.01,284.414 C 568.01,286.914 565.51,289.414 563.01,289.414"/>
  </g>
  <g>
    <line style="fill: none; fill-opacity:0; stroke-width: 2; stroke: #ff0000" x1="505.01" y1="287.414" x2="566.01" y2="235.414"/>
    <path style="fill: #ff0000" d="M 505.01 287.414 C 503.388,285.512 503.669,281.987 505.571,280.365 C 507.474,278.744 510.998,279.024 512.62,280.927 C 514.242,282.829 513.961,286.354 512.058,287.976 C 510.156,289.597 506.632,289.317 505.01,287.414z"/>
    <path style="fill: none; fill-opacity:0; stroke-width: 2; stroke: #ff0000" d="M 505.01 287.414 C 503.388,285.512 503.669,281.987 505.571,280.365 C 507.474,278.744 510.998,279.024 512.62,280.927 C 514.242,282.829 513.961,286.354 512.058,287.976 C 510.156,289.597 506.632,289.317 505.01,287.414"/>
    <path style="fill: #ff0000" d="M 566.01 235.414 C 567.632,237.317 567.351,240.841 565.448,242.463 C 563.546,244.085 560.021,243.804 558.4,241.902 C 556.778,239.999 557.058,236.475 558.961,234.853 C 560.864,233.231 564.388,233.512 566.01,235.414z"/>
    <path style="fill: none; fill-opacity:0; stroke-width: 2; stroke: #ff0000" d="M 566.01 235.414 C 567.632,237.317 567.351,240.841 565.448,242.463 C 563.546,244.085 560.021,243.804 558.4,241.902 C 556.778,239.999 557.058,236.475 558.961,234.853 C 560.864,233.231 564.388,233.512 566.01,235.414"/>
  </g>
  <g>
    <line style="fill: none; fill-opacity:0; stroke-width: 2; stroke: #ff0000" x1="593" y1="288" x2="559.01" y2="233.414"/>
    <path style="fill: #ff0000" d="M 593 288 C 590.878,289.321 587.434,288.521 586.113,286.399 C 584.791,284.276 585.592,280.833 587.714,279.511 C 589.836,278.19 593.28,278.99 594.601,281.113 C 595.923,283.235 595.122,286.679 593,288z"/>
    <path style="fill: none; fill-opacity:0; stroke-width: 2; stroke: #ff0000" d="M 593 288 C 590.878,289.321 587.434,288.521 586.113,286.399 C 584.791,284.276 585.592,280.833 587.714,279.511 C 589.836,278.19 593.28,278.99 594.601,281.113 C 595.923,283.235 595.122,286.679 593,288"/>
    <path style="fill: #ff0000" d="M 559.01 233.414 C 561.132,232.093 564.576,232.893 565.897,235.016 C 567.219,237.138 566.418,240.582 564.296,241.903 C 562.173,243.224 558.73,242.424 557.408,240.302 C 556.087,238.179 556.888,234.736 559.01,233.414z"/>
    <path style="fill: none; fill-opacity:0; stroke-width: 2; stroke: #ff0000" d="M 559.01 233.414 C 561.132,232.093 564.576,232.893 565.897,235.016 C 567.219,237.138 566.418,240.582 564.296,241.903 C 562.173,243.224 558.73,242.424 557.408,240.302 C 556.087,238.179 556.888,234.736 559.01,233.414"/>
  </g>
  <g>
    <line style="fill: none; fill-opacity:0; stroke-width: 2; stroke: #ff0000" x1="633.61" y1="233.414" x2="633.61" y2="291.414"/>
    <path style="fill: #ff0000" d="M 633.61 233.414 C 636.11,233.414 638.61,235.914 638.61,238.414 C 638.61,240.914 636.11,243.414 633.61,243.414 C 631.11,243.414 628.61,240.914 628.61,238.414 C 628.61,235.914 631.11,233.414 633.61,233.414z"/>
    <path style="fill: none; fill-opacity:0; stroke-width: 2; stroke: #ff0000" d="M 633.61 233.414 C 636.11,233.414 638.61,235.914 638.61,238.414 C 638.61,240.914 636.11,243.414 633.61,243.414 C 631.11,243.414 628.61,240.914 628.61,238.414 C 628.61,235.914 631.11,233.414 633.61,233.414"/>
    <path style="fill: #ff0000" d="M 633.61 291.414 C 631.11,291.414 628.61,288.914 628.61,286.414 C 628.61,283.914 631.11,281.414 633.61,281.414 C 636.11,281.414 638.61,283.914 638.61,286.414 C 638.61,288.914 636.11,291.414 633.61,291.414z"/>
    <path style="fill: none; fill-opacity:0; stroke-width: 2; stroke: #ff0000" d="M 633.61 291.414 C 631.11,291.414 628.61,288.914 628.61,286.414 C 628.61,283.914 631.11,281.414 633.61,281.414 C 636.11,281.414 638.61,283.914 638.61,286.414 C 638.61,288.914 636.11,291.414 633.61,291.414"/>
  </g>
  <g>
    <line style="fill: none; fill-opacity:0; stroke-width: 2; stroke: #ff0000" x1="607" y1="287" x2="636.61" y2="236.414"/>
    <path style="fill: #ff0000" d="M 607 287 C 604.842,285.737 603.948,282.317 605.211,280.159 C 606.474,278.002 609.894,277.107 612.052,278.37 C 614.209,279.633 615.104,283.053 613.841,285.211 C 612.578,287.368 609.158,288.263 607,287z"/>
    <path style="fill: none; fill-opacity:0; stroke-width: 2; stroke: #ff0000" d="M 607 287 C 604.842,285.737 603.948,282.317 605.211,280.159 C 606.474,278.002 609.894,277.107 612.052,278.37 C 614.209,279.633 615.104,283.053 613.841,285.211 C 612.578,287.368 609.158,288.263 607,287"/>
    <path style="fill: #ff0000" d="M 636.61 236.414 C 638.767,237.677 639.662,241.098 638.399,243.255 C 637.136,245.413 633.716,246.307 631.558,245.044 C 629.401,243.782 628.506,240.361 629.769,238.204 C 631.032,236.046 634.452,235.151 636.61,236.414z"/>
    <path style="fill: none; fill-opacity:0; stroke-width: 2; stroke: #ff0000" d="M 636.61 236.414 C 638.767,237.677 639.662,241.098 638.399,243.255 C 637.136,245.413 633.716,246.307 631.558,245.044 C 629.401,243.782 628.506,240.361 629.769,238.204 C 631.032,236.046 634.452,235.151 636.61,236.414"/>
  </g>
</svg>
