<?xml version="1.0" encoding="UTF-8" standalone="no"?>
<!DOCTYPE svg PUBLIC "-//W3C//DTD SVG 1.0//EN" "http://www.w3.org/TR/2001/PR-SVG-20010719/DTD/svg10.dtd">
<svg width="19cm" height="16cm" viewBox="218 38 363 303" xmlns="http://www.w3.org/2000/svg" xmlns:xlink="http://www.w3.org/1999/xlink">
  <g>
    <line style="fill: none; fill-opacity:0; stroke-width: 2; stroke: #000000" x1="400" y1="40" x2="400" y2="100"/>
    <path style="fill: #000000" d="M 400 40 C 402.5,40 405,42.5 405,45 C 405,47.5 402.5,50 400,50 C 397.5,50 395,47.5 395,45 C 395,42.5 397.5,40 400,40z"/>
    <path style="fill: none; fill-opacity:0; stroke-width: 2; stroke: #000000" d="M 400 40 C 402.5,40 405,42.5 405,45 C 405,47.5 402.5,50 400,50 C 397.5,50 395,47.5 395,45 C 395,42.5 397.5,40 400,40"/>
    <path style="fill: #000000" d="M 400 100 C 397.5,100 395,97.5 395,95 C 395,92.5 397.5,90 400,90 C 402.5,90 405,92.5 405,95 C 405,97.5 402.5,100 400,100z"/>
    <path style="fill: none; fill-opacity:0; stroke-width: 2; stroke: #000000" d="M 400 100 C 397.5,100 395,97.5 395,95 C 395,92.5 397.5,90 400,90 C 402.5,90 405,92.5 405,95 C 405,97.5 402.5,100 400,100"/>
  </g>
  <g>
    <line style="fill: none; fill-opacity:0; stroke-width: 2; stroke: #000000" x1="400" y1="40" x2="340" y2="100"/>
    <path style="fill: #000000" d="M 340 100 C 338.232,98.2322 338.232,94.6967 340,92.9289 C 341.768,91.1612 345.303,91.1612 347.071,92.9289 C 348.839,94.6967 348.839,98.2322 347.071,100 C 345.303,101.768 341.768,101.768 340,100z"/>
    <path style="fill: none; fill-opacity:0; stroke-width: 2; stroke: #000000" d="M 340 100 C 338.232,98.2322 338.232,94.6967 340,92.9289 C 341.768,91.1612 345.303,91.1612 347.071,92.9289 C 348.839,94.6967 348.839,98.2322 347.071,100 C 345.303,101.768 341.768,101.768 340,100"/>
  </g>
  <g>
    <line style="fill: none; fill-opacity:0; stroke-width: 2; stroke: #000000" x1="400" y1="40" x2="460" y2="100"/>
    <path style="fill: #000000" d="M 460 100 C 458.232,101.768 454.697,101.768 452.929,100 C 451.161,98.2322 451.161,94.6967 452.929,92.9289 C 454.697,91.1612 458.232,91.1612 460,92.9289 C 461.768,94.6967 461.768,98.2322 460,100z"/>
    <path style="fill: none; fill-opacity:0; stroke-width: 2; stroke: #000000" d="M 460 100 C 458.232,101.768 454.697,101.768 452.929,100 C 451.161,98.2322 451.161,94.6967 452.929,92.9289 C 454.697,91.1612 458.232,91.1612 460,92.9289 C 461.768,94.6967 461.768,98.2322 460,100"/>
  </g>
  <g>
    <line style="fill: none; fill-opacity:0; stroke-width: 2; stroke: #000000" x1="400" y1="100" x2="420" y2="160"/>
    <path style="fill: #000000" d="M 420 160 C 417.628,160.791 414.466,159.209 413.675,156.838 C 412.885,154.466 414.466,151.304 416.838,150.513 C 419.209,149.723 422.372,151.304 423.162,153.675 C 423.953,156.047 422.372,159.209 420,160z"/>
    <path style="fill: none; fill-opacity:0; stroke-width: 2; stroke: #000000" d="M 420 160 C 417.628,160.791 414.466,159.209 413.675,156.838 C 412.885,154.466 414.466,151.304 416.838,150.513 C 419.209,149.723 422.372,151.304 423.162,153.675 C 423.953,156.047 422.372,159.209 420,160"/>
  </g>
  <g>
    <line style="fill: none; fill-opacity:0; stroke-width: 2; stroke: #000000" x1="460" y1="100" x2="440" y2="160"/>
    <path style="fill: #000000" d="M 440 160 C 437.628,159.209 436.047,156.047 436.838,153.675 C 437.628,151.304 440.791,149.723 443.162,150.513 C 445.534,151.304 447.115,154.466 446.325,156.838 C 445.534,159.209 442.372,160.791 440,160z"/>
    <path style="fill: none; fill-opacity:0; stroke-width: 2; stroke: #000000" d="M 440 160 C 437.628,159.209 436.047,156.047 436.838,153.675 C 437.628,151.304 440.791,149.723 443.162,150.513 C 445.534,151.304 447.115,154.466 446.325,156.838 C 445.534,159.209 442.372,160.791 440,160"/>
  </g>
  <g>
    <line style="fill: none; fill-opacity:0; stroke-width: 2; stroke: #000000" x1="460" y1="100" x2="460" y2="160"/>
    <path style="fill: #000000" d="M 460 160 C 457.5,160 455,157.5 455,155 C 455,152.5 457.5,150 460,150 C 462.5,150 465,152.5 465,155 C 465,157.5 462.5,160 460,160z"/>
    <path style="fill: none; fill-opacity:0; stroke-width: 2; stroke: #000000" d="M 460 160 C 457.5,160 455,157.5 455,155 C 455,152.5 457.5,150 460,150 C 462.5,150 465,152.5 465,155 C 465,157.5 462.5,160 460,160"/>
  </g>
  <line style="fill: none; fill-opacity:0; stroke-width: 2; stroke: #000000" x1="460" y1="100" x2="520" y2="160"/>
  <g>
    <line style="fill: none; fill-opacity:0; stroke-width: 2; stroke: #000000" x1="520" y1="160" x2="460" y2="220"/>
    <path style="fill: #000000" d="M 460 220 C 458.232,218.232 458.232,214.697 460,212.929 C 461.768,211.161 465.303,211.161 467.071,212.929 C 468.839,214.697 468.839,218.232 467.071,220 C 465.303,221.768 461.768,221.768 460,220z"/>
    <path style="fill: none; fill-opacity:0; stroke-width: 2; stroke: #000000" d="M 460 220 C 458.232,218.232 458.232,214.697 460,212.929 C 461.768,211.161 465.303,211.161 467.071,212.929 C 468.839,214.697 468.839,218.232 467.071,220 C 465.303,221.768 461.768,221.768 460,220"/>
  </g>
  <g>
    <line style="fill: none; fill-opacity:0; stroke-width: 2; stroke: #000000" x1="520" y1="160" x2="580" y2="220"/>
    <path style="fill: #000000" d="M 580 220 C 578.232,221.768 574.697,221.768 572.929,220 C 571.161,218.232 571.161,214.697 572.929,212.929 C 574.697,211.161 578.232,211.161 580,212.929 C 581.768,214.697 581.768,218.232 580,220z"/>
    <path style="fill: none; fill-opacity:0; stroke-width: 2; stroke: #000000" d="M 580 220 C 578.232,221.768 574.697,221.768 572.929,220 C 571.161,218.232 571.161,214.697 572.929,212.929 C 574.697,211.161 578.232,211.161 580,212.929 C 581.768,214.697 581.768,218.232 580,220"/>
  </g>
  <g>
    <line style="fill: none; fill-opacity:0; stroke-width: 2; stroke: #ff0000" x1="520" y1="160" x2="520" y2="220"/>
    <path style="fill: #ff0000" d="M 520 160 C 522.5,160 525,162.5 525,165 C 525,167.5 522.5,170 520,170 C 517.5,170 515,167.5 515,165 C 515,162.5 517.5,160 520,160z"/>
    <path style="fill: none; fill-opacity:0; stroke-width: 2; stroke: #ff0000" d="M 520 160 C 522.5,160 525,162.5 525,165 C 525,167.5 522.5,170 520,170 C 517.5,170 515,167.5 515,165 C 515,162.5 517.5,160 520,160"/>
    <path style="fill: #ff0000" d="M 520 220 C 517.5,220 515,217.5 515,215 C 515,212.5 517.5,210 520,210 C 522.5,210 525,212.5 525,215 C 525,217.5 522.5,220 520,220z"/>
    <path style="fill: none; fill-opacity:0; stroke-width: 2; stroke: #ff0000" d="M 520 220 C 517.5,220 515,217.5 515,215 C 515,212.5 517.5,210 520,210 C 522.5,210 525,212.5 525,215 C 525,217.5 522.5,220 520,220"/>
  </g>
  <g>
    <line style="fill: none; fill-opacity:0; stroke-width: 2; stroke: #ff0000" x1="520" y1="220" x2="460" y2="280"/>
    <path style="fill: #ff0000" d="M 460 280 C 458.232,278.232 458.232,274.697 460,272.929 C 461.768,271.161 465.303,271.161 467.071,272.929 C 468.839,274.697 468.839,278.232 467.071,280 C 465.303,281.768 461.768,281.768 460,280z"/>
    <path style="fill: none; fill-opacity:0; stroke-width: 2; stroke: #ff0000" d="M 460 280 C 458.232,278.232 458.232,274.697 460,272.929 C 461.768,271.161 465.303,271.161 467.071,272.929 C 468.839,274.697 468.839,278.232 467.071,280 C 465.303,281.768 461.768,281.768 460,280"/>
  </g>
  <g>
    <line style="fill: none; fill-opacity:0; stroke-width: 2; stroke: #ff0000" x1="520" y1="220" x2="580" y2="280"/>
    <path style="fill: #ff0000" d="M 580 280 C 578.232,281.768 574.697,281.768 572.929,280 C 571.161,278.232 571.161,274.697 572.929,272.929 C 574.697,271.161 578.232,271.161 580,272.929 C 581.768,274.697 581.768,278.232 580,280z"/>
    <path style="fill: none; fill-opacity:0; stroke-width: 2; stroke: #ff0000" d="M 580 280 C 578.232,281.768 574.697,281.768 572.929,280 C 571.161,278.232 571.161,274.697 572.929,272.929 C 574.697,271.161 578.232,271.161 580,272.929 C 581.768,274.697 581.768,278.232 580,280"/>
  </g>
  <g>
    <line style="fill: none; fill-opacity:0; stroke-width: 2; stroke: #ff0000" x1="580" y1="280" x2="540" y2="340"/>
    <path style="fill: #ff0000" d="M 540 340 C 537.92,338.613 537.226,335.146 538.613,333.066 C 540,330.986 543.467,330.293 545.547,331.679 C 547.627,333.066 548.321,336.533 546.934,338.613 C 545.547,340.693 542.08,341.387 540,340z"/>
    <path style="fill: none; fill-opacity:0; stroke-width: 2; stroke: #ff0000" d="M 540 340 C 537.92,338.613 537.226,335.146 538.613,333.066 C 540,330.986 543.467,330.293 545.547,331.679 C 547.627,333.066 548.321,336.533 546.934,338.613 C 545.547,340.693 542.08,341.387 540,340"/>
  </g>
  <g>
    <line style="fill: none; fill-opacity:0; stroke-width: 2; stroke: #ff0000" x1="460" y1="280" x2="500" y2="340"/>
    <path style="fill: #ff0000" d="M 500 340 C 497.92,341.387 494.453,340.693 493.066,338.613 C 491.679,336.533 492.373,333.066 494.453,331.679 C 496.533,330.293 500,330.986 501.387,333.066 C 502.774,335.146 502.08,338.613 500,340z"/>
    <path style="fill: none; fill-opacity:0; stroke-width: 2; stroke: #ff0000" d="M 500 340 C 497.92,341.387 494.453,340.693 493.066,338.613 C 491.679,336.533 492.373,333.066 494.453,331.679 C 496.533,330.293 500,330.986 501.387,333.066 C 502.774,335.146 502.08,338.613 500,340"/>
  </g>
  <g>
    <line style="fill: none; fill-opacity:0; stroke-width: 2; stroke: #ff0000" x1="460" y1="280" x2="460" y2="340"/>
    <path style="fill: #ff0000" d="M 460 340 C 457.5,340 455,337.5 455,335 C 455,332.5 457.5,330 460,330 C 462.5,330 465,332.5 465,335 C 465,337.5 462.5,340 460,340z"/>
    <path style="fill: none; fill-opacity:0; stroke-width: 2; stroke: #ff0000" d="M 460 340 C 457.5,340 455,337.5 455,335 C 455,332.5 457.5,330 460,330 C 462.5,330 465,332.5 465,335 C 465,337.5 462.5,340 460,340"/>
  </g>
  <g>
    <line style="fill: none; fill-opacity:0; stroke-width: 2; stroke: #ff0000" x1="460" y1="280" x2="400" y2="340"/>
    <path style="fill: #ff0000" d="M 400 340 C 398.232,338.232 398.232,334.697 400,332.929 C 401.768,331.161 405.303,331.161 407.071,332.929 C 408.839,334.697 408.839,338.232 407.071,340 C 405.303,341.768 401.768,341.768 400,340z"/>
    <path style="fill: none; fill-opacity:0; stroke-width: 2; stroke: #ff0000" d="M 400 340 C 398.232,338.232 398.232,334.697 400,332.929 C 401.768,331.161 405.303,331.161 407.071,332.929 C 408.839,334.697 408.839,338.232 407.071,340 C 405.303,341.768 401.768,341.768 400,340"/>
  </g>
  <g>
    <line style="fill: none; fill-opacity:0; stroke-width: 2; stroke: #000000" x1="340" y1="100" x2="340" y2="160"/>
    <path style="fill: #000000" d="M 340 160 C 337.5,160 335,157.5 335,155 C 335,152.5 337.5,150 340,150 C 342.5,150 345,152.5 345,155 C 345,157.5 342.5,160 340,160z"/>
    <path style="fill: none; fill-opacity:0; stroke-width: 2; stroke: #000000" d="M 340 160 C 337.5,160 335,157.5 335,155 C 335,152.5 337.5,150 340,150 C 342.5,150 345,152.5 345,155 C 345,157.5 342.5,160 340,160"/>
  </g>
  <g>
    <line style="fill: none; fill-opacity:0; stroke-width: 2; stroke: #000000" x1="340" y1="100" x2="380" y2="160"/>
    <path style="fill: #000000" d="M 380 160 C 377.92,161.387 374.453,160.693 373.066,158.613 C 371.679,156.533 372.373,153.066 374.453,151.679 C 376.533,150.293 380,150.986 381.387,153.066 C 382.774,155.146 382.08,158.613 380,160z"/>
    <path style="fill: none; fill-opacity:0; stroke-width: 2; stroke: #000000" d="M 380 160 C 377.92,161.387 374.453,160.693 373.066,158.613 C 371.679,156.533 372.373,153.066 374.453,151.679 C 376.533,150.293 380,150.986 381.387,153.066 C 382.774,155.146 382.08,158.613 380,160"/>
  </g>
  <g>
    <line style="fill: none; fill-opacity:0; stroke-width: 2; stroke: #000000" x1="340" y1="100" x2="280" y2="160"/>
    <path style="fill: #000000" d="M 280 160 C 278.232,158.232 278.232,154.697 280,152.929 C 281.768,151.161 285.303,151.161 287.071,152.929 C 288.839,154.697 288.839,158.232 287.071,160 C 285.303,161.768 281.768,161.768 280,160z"/>
    <path style="fill: none; fill-opacity:0; stroke-width: 2; stroke: #000000" d="M 280 160 C 278.232,158.232 278.232,154.697 280,152.929 C 281.768,151.161 285.303,151.161 287.071,152.929 C 288.839,154.697 288.839,158.232 287.071,160 C 285.303,161.768 281.768,161.768 280,160"/>
  </g>
  <g>
    <line style="fill: none; fill-opacity:0; stroke-width: 2; stroke: #000000" x1="380" y1="160" x2="340" y2="220"/>
    <path style="fill: #000000" d="M 340 220 C 337.92,218.613 337.226,215.146 338.613,213.066 C 340,210.986 343.467,210.293 345.547,211.679 C 347.627,213.066 348.321,216.533 346.934,218.613 C 345.547,220.693 342.08,221.387 340,220z"/>
    <path style="fill: none; fill-opacity:0; stroke-width: 2; stroke: #000000" d="M 340 220 C 337.92,218.613 337.226,215.146 338.613,213.066 C 340,210.986 343.467,210.293 345.547,211.679 C 347.627,213.066 348.321,216.533 346.934,218.613 C 345.547,220.693 342.08,221.387 340,220"/>
  </g>
  <g>
    <line style="fill: none; fill-opacity:0; stroke-width: 2; stroke: #000000" x1="280" y1="160" x2="320" y2="220"/>
    <path style="fill: #000000" d="M 320 220 C 317.92,221.387 314.453,220.693 313.066,218.613 C 311.679,216.533 312.373,213.066 314.453,211.679 C 316.533,210.293 320,210.986 321.387,213.066 C 322.774,215.146 322.08,218.613 320,220z"/>
    <path style="fill: none; fill-opacity:0; stroke-width: 2; stroke: #000000" d="M 320 220 C 317.92,221.387 314.453,220.693 313.066,218.613 C 311.679,216.533 312.373,213.066 314.453,211.679 C 316.533,210.293 320,210.986 321.387,213.066 C 322.774,215.146 322.08,218.613 320,220"/>
  </g>
  <g>
    <line style="fill: none; fill-opacity:0; stroke-width: 2; stroke: #000000" x1="380" y1="160" x2="380" y2="220"/>
    <path style="fill: #000000" d="M 380 220 C 377.5,220 375,217.5 375,215 C 375,212.5 377.5,210 380,210 C 382.5,210 385,212.5 385,215 C 385,217.5 382.5,220 380,220z"/>
    <path style="fill: none; fill-opacity:0; stroke-width: 2; stroke: #000000" d="M 380 220 C 377.5,220 375,217.5 375,215 C 375,212.5 377.5,210 380,210 C 382.5,210 385,212.5 385,215 C 385,217.5 382.5,220 380,220"/>
  </g>
  <g>
    <line style="fill: none; fill-opacity:0; stroke-width: 2; stroke: #000000" x1="380" y1="160" x2="420" y2="220"/>
    <path style="fill: #000000" d="M 420 220 C 417.92,221.387 414.453,220.693 413.066,218.613 C 411.679,216.533 412.373,213.066 414.453,211.679 C 416.533,210.293 420,210.986 421.387,213.066 C 422.774,215.146 422.08,218.613 420,220z"/>
    <path style="fill: none; fill-opacity:0; stroke-width: 2; stroke: #000000" d="M 420 220 C 417.92,221.387 414.453,220.693 413.066,218.613 C 411.679,216.533 412.373,213.066 414.453,211.679 C 416.533,210.293 420,210.986 421.387,213.066 C 422.774,215.146 422.08,218.613 420,220"/>
  </g>
  <g>
    <line style="fill: none; fill-opacity:0; stroke-width: 2; stroke: #000000" x1="420" y1="220" x2="440" y2="280"/>
    <path style="fill: #000000" d="M 440 280 C 437.628,280.791 434.466,279.209 433.675,276.838 C 432.885,274.466 434.466,271.304 436.838,270.513 C 439.209,269.723 442.372,271.304 443.162,273.675 C 443.953,276.047 442.372,279.209 440,280z"/>
    <path style="fill: none; fill-opacity:0; stroke-width: 2; stroke: #000000" d="M 440 280 C 437.628,280.791 434.466,279.209 433.675,276.838 C 432.885,274.466 434.466,271.304 436.838,270.513 C 439.209,269.723 442.372,271.304 443.162,273.675 C 443.953,276.047 442.372,279.209 440,280"/>
  </g>
  <g>
    <line style="fill: none; fill-opacity:0; stroke-width: 2; stroke: #000000" x1="420" y1="220" x2="360" y2="280"/>
    <path style="fill: #000000" d="M 360 280 C 358.232,278.232 358.232,274.697 360,272.929 C 361.768,271.161 365.303,271.161 367.071,272.929 C 368.839,274.697 368.839,278.232 367.071,280 C 365.303,281.768 361.768,281.768 360,280z"/>
    <path style="fill: none; fill-opacity:0; stroke-width: 2; stroke: #000000" d="M 360 280 C 358.232,278.232 358.232,274.697 360,272.929 C 361.768,271.161 365.303,271.161 367.071,272.929 C 368.839,274.697 368.839,278.232 367.071,280 C 365.303,281.768 361.768,281.768 360,280"/>
  </g>
  <g>
    <line style="fill: none; fill-opacity:0; stroke-width: 2; stroke: #000000" x1="280" y1="160" x2="280" y2="220"/>
    <path style="fill: #000000" d="M 280 220 C 277.5,220 275,217.5 275,215 C 275,212.5 277.5,210 280,210 C 282.5,210 285,212.5 285,215 C 285,217.5 282.5,220 280,220z"/>
    <path style="fill: none; fill-opacity:0; stroke-width: 2; stroke: #000000" d="M 280 220 C 277.5,220 275,217.5 275,215 C 275,212.5 277.5,210 280,210 C 282.5,210 285,212.5 285,215 C 285,217.5 282.5,220 280,220"/>
  </g>
  <g>
    <line style="fill: none; fill-opacity:0; stroke-width: 2; stroke: #000000" x1="280" y1="220" x2="340" y2="280"/>
    <path style="fill: #000000" d="M 340 280 C 338.232,281.768 334.697,281.768 332.929,280 C 331.161,278.232 331.161,274.697 332.929,272.929 C 334.697,271.161 338.232,271.161 340,272.929 C 341.768,274.697 341.768,278.232 340,280z"/>
    <path style="fill: none; fill-opacity:0; stroke-width: 2; stroke: #000000" d="M 340 280 C 338.232,281.768 334.697,281.768 332.929,280 C 331.161,278.232 331.161,274.697 332.929,272.929 C 334.697,271.161 338.232,271.161 340,272.929 C 341.768,274.697 341.768,278.232 340,280"/>
  </g>
  <g>
    <line style="fill: none; fill-opacity:0; stroke-width: 2; stroke: #000000" x1="280" y1="220" x2="280" y2="280"/>
    <path style="fill: #000000" d="M 280 280 C 277.5,280 275,277.5 275,275 C 275,272.5 277.5,270 280,270 C 282.5,270 285,272.5 285,275 C 285,277.5 282.5,280 280,280z"/>
    <path style="fill: none; fill-opacity:0; stroke-width: 2; stroke: #000000" d="M 280 280 C 277.5,280 275,277.5 275,275 C 275,272.5 277.5,270 280,270 C 282.5,270 285,272.5 285,275 C 285,277.5 282.5,280 280,280"/>
  </g>
  <g>
    <line style="fill: none; fill-opacity:0; stroke-width: 2; stroke: #000000" x1="280" y1="220" x2="220" y2="280"/>
    <path style="fill: #000000" d="M 220 280 C 218.232,278.232 218.232,274.697 220,272.929 C 221.768,271.161 225.303,271.161 227.071,272.929 C 228.839,274.697 228.839,278.232 227.071,280 C 225.303,281.768 221.768,281.768 220,280z"/>
    <path style="fill: none; fill-opacity:0; stroke-width: 2; stroke: #000000" d="M 220 280 C 218.232,278.232 218.232,274.697 220,272.929 C 221.768,271.161 225.303,271.161 227.071,272.929 C 228.839,274.697 228.839,278.232 227.071,280 C 225.303,281.768 221.768,281.768 220,280"/>
  </g>
</svg>
