<?xml version="1.0" encoding="UTF-8" standalone="no"?>
<!DOCTYPE svg PUBLIC "-//W3C//DTD SVG 1.0//EN" "http://www.w3.org/TR/2001/PR-SVG-20010719/DTD/svg10.dtd">
<svg width="17cm" height="18cm" viewBox="339 53 325 358" xmlns="http://www.w3.org/2000/svg" xmlns:xlink="http://www.w3.org/1999/xlink">
  <g>
    <ellipse style="fill: #ffffff" cx="476.5" cy="73.5" rx="19.5" ry="19.5"/>
    <ellipse style="fill: none; fill-opacity:0; stroke-width: 2; stroke: #000000" cx="476.5" cy="73.5" rx="19.5" ry="19.5"/>
    <ellipse style="fill: none; fill-opacity:0; stroke-width: 2; stroke: #000000" cx="476.5" cy="73.5" rx="19.5" ry="19.5"/>
  </g>
  <text font-size="12.7998" style="fill: #000000;text-anchor:start;font-family:sans-serif;font-style:normal;font-weight:normal" x="476.5" y="73.5">
    <tspan x="476.5" y="73.5"></tspan>
  </text>
  <text font-size="12.7998" style="fill: #000000;text-anchor:start;font-family:sans-serif;font-style:normal;font-weight:normal" x="476.5" y="73.5">
    <tspan x="476.5" y="73.5"></tspan>
  </text>
  <text font-size="17.8813" style="fill: #000000;text-anchor:start;font-family:sans-serif;font-style:normal;font-weight:normal" x="470.25" y="79.25">
    <tspan x="470.25" y="79.25">О</tspan>
  </text>
  <g>
    <ellipse style="fill: #ffffff" cx="360.8" cy="129.4" rx="19.5" ry="19.5"/>
    <ellipse style="fill: none; fill-opacity:0; stroke-width: 2; stroke: #000000" cx="360.8" cy="129.4" rx="19.5" ry="19.5"/>
    <ellipse style="fill: none; fill-opacity:0; stroke-width: 2; stroke: #000000" cx="360.8" cy="129.4" rx="19.5" ry="19.5"/>
  </g>
  <text font-size="12.7998" style="fill: #000000;text-anchor:start;font-family:sans-serif;font-style:normal;font-weight:normal" x="360.8" y="129.4">
    <tspan x="360.8" y="129.4"></tspan>
  </text>
  <text font-size="12.7998" style="fill: #000000;text-anchor:start;font-family:sans-serif;font-style:normal;font-weight:normal" x="360.8" y="129.4">
    <tspan x="360.8" y="129.4"></tspan>
  </text>
  <text font-size="17.8813" style="fill: #000000;text-anchor:start;font-family:sans-serif;font-style:normal;font-weight:normal" x="354.55" y="135.15">
    <tspan x="354.55" y="135.15">Л</tspan>
  </text>
  <g>
    <ellipse style="fill: #ffffff" cx="475.1" cy="138.3" rx="19.5" ry="19.5"/>
    <ellipse style="fill: none; fill-opacity:0; stroke-width: 2; stroke: #000000" cx="475.1" cy="138.3" rx="19.5" ry="19.5"/>
    <ellipse style="fill: none; fill-opacity:0; stroke-width: 2; stroke: #000000" cx="475.1" cy="138.3" rx="19.5" ry="19.5"/>
  </g>
  <text font-size="12.7998" style="fill: #000000;text-anchor:start;font-family:sans-serif;font-style:normal;font-weight:normal" x="475.1" y="138.3">
    <tspan x="475.1" y="138.3"></tspan>
  </text>
  <text font-size="12.7998" style="fill: #000000;text-anchor:start;font-family:sans-serif;font-style:normal;font-weight:normal" x="475.1" y="138.3">
    <tspan x="475.1" y="138.3"></tspan>
  </text>
  <text font-size="17.8813" style="fill: #000000;text-anchor:start;font-family:sans-serif;font-style:normal;font-weight:normal" x="468.85" y="144.05">
    <tspan x="468.85" y="144.05">Н</tspan>
  </text>
  <g>
    <ellipse style="fill: #ffffff" cx="578.4" cy="132.2" rx="19.5" ry="19.5"/>
    <ellipse style="fill: none; fill-opacity:0; stroke-width: 2; stroke: #000000" cx="578.4" cy="132.2" rx="19.5" ry="19.5"/>
    <ellipse style="fill: none; fill-opacity:0; stroke-width: 2; stroke: #000000" cx="578.4" cy="132.2" rx="19.5" ry="19.5"/>
  </g>
  <text font-size="12.7998" style="fill: #000000;text-anchor:start;font-family:sans-serif;font-style:normal;font-weight:normal" x="578.4" y="132.2">
    <tspan x="578.4" y="132.2"></tspan>
  </text>
  <text font-size="12.7998" style="fill: #000000;text-anchor:start;font-family:sans-serif;font-style:normal;font-weight:normal" x="578.4" y="132.2">
    <tspan x="578.4" y="132.2"></tspan>
  </text>
  <text font-size="17.8813" style="fill: #000000;text-anchor:start;font-family:sans-serif;font-style:normal;font-weight:normal" x="572.15" y="137.95">
    <tspan x="572.15" y="137.95">Т</tspan>
  </text>
  <g>
    <ellipse style="fill: #ffffff" cx="475.7" cy="211.1" rx="19.5" ry="19.5"/>
    <ellipse style="fill: none; fill-opacity:0; stroke-width: 2; stroke: #000000" cx="475.7" cy="211.1" rx="19.5" ry="19.5"/>
    <ellipse style="fill: none; fill-opacity:0; stroke-width: 2; stroke: #000000" cx="475.7" cy="211.1" rx="19.5" ry="19.5"/>
  </g>
  <text font-size="12.7998" style="fill: #000000;text-anchor:start;font-family:sans-serif;font-style:normal;font-weight:normal" x="475.7" y="211.1">
    <tspan x="475.7" y="211.1"></tspan>
  </text>
  <text font-size="12.7998" style="fill: #000000;text-anchor:start;font-family:sans-serif;font-style:normal;font-weight:normal" x="475.7" y="211.1">
    <tspan x="475.7" y="211.1"></tspan>
  </text>
  <text font-size="17.8813" style="fill: #000000;text-anchor:start;font-family:sans-serif;font-style:normal;font-weight:normal" x="469.45" y="216.85">
    <tspan x="469.45" y="216.85">А</tspan>
  </text>
  <g>
    <ellipse style="fill: #ffffff" cx="526" cy="269" rx="19.5" ry="19.5"/>
    <ellipse style="fill: none; fill-opacity:0; stroke-width: 2; stroke: #000000" cx="526" cy="269" rx="19.5" ry="19.5"/>
    <ellipse style="fill: none; fill-opacity:0; stroke-width: 2; stroke: #000000" cx="526" cy="269" rx="19.5" ry="19.5"/>
  </g>
  <text font-size="12.7998" style="fill: #000000;text-anchor:start;font-family:sans-serif;font-style:normal;font-weight:normal" x="526" y="269">
    <tspan x="526" y="269"></tspan>
  </text>
  <text font-size="12.7998" style="fill: #000000;text-anchor:start;font-family:sans-serif;font-style:normal;font-weight:normal" x="526" y="269">
    <tspan x="526" y="269"></tspan>
  </text>
  <text font-size="17.8813" style="fill: #000000;text-anchor:start;font-family:sans-serif;font-style:normal;font-weight:normal" x="519.75" y="274.75">
    <tspan x="519.75" y="274.75">И</tspan>
  </text>
  <g>
    <ellipse style="fill: #ffffff" cx="577.3" cy="205.9" rx="19.5" ry="19.5"/>
    <ellipse style="fill: none; fill-opacity:0; stroke-width: 2; stroke: #000000" cx="577.3" cy="205.9" rx="19.5" ry="19.5"/>
    <ellipse style="fill: none; fill-opacity:0; stroke-width: 2; stroke: #000000" cx="577.3" cy="205.9" rx="19.5" ry="19.5"/>
  </g>
  <text font-size="12.7998" style="fill: #000000;text-anchor:start;font-family:sans-serif;font-style:normal;font-weight:normal" x="577.3" y="205.9">
    <tspan x="577.3" y="205.9"></tspan>
  </text>
  <text font-size="12.7998" style="fill: #000000;text-anchor:start;font-family:sans-serif;font-style:normal;font-weight:normal" x="577.3" y="205.9">
    <tspan x="577.3" y="205.9"></tspan>
  </text>
  <text font-size="17.8813" style="fill: #000000;text-anchor:start;font-family:sans-serif;font-style:normal;font-weight:normal" x="571.05" y="211.65">
    <tspan x="571.05" y="211.65">Ы</tspan>
  </text>
  <g>
    <ellipse style="fill: #ffffff" cx="643.6" cy="203.8" rx="19.5" ry="19.5"/>
    <ellipse style="fill: none; fill-opacity:0; stroke-width: 2; stroke: #000000" cx="643.6" cy="203.8" rx="19.5" ry="19.5"/>
    <ellipse style="fill: none; fill-opacity:0; stroke-width: 2; stroke: #000000" cx="643.6" cy="203.8" rx="19.5" ry="19.5"/>
  </g>
  <text font-size="12.7998" style="fill: #000000;text-anchor:start;font-family:sans-serif;font-style:normal;font-weight:normal" x="643.6" y="203.8">
    <tspan x="643.6" y="203.8"></tspan>
  </text>
  <text font-size="12.7998" style="fill: #000000;text-anchor:start;font-family:sans-serif;font-style:normal;font-weight:normal" x="643.6" y="203.8">
    <tspan x="643.6" y="203.8"></tspan>
  </text>
  <text font-size="17.8813" style="fill: #000000;text-anchor:start;font-family:sans-serif;font-style:normal;font-weight:normal" x="637.35" y="209.55">
    <tspan x="637.35" y="209.55">Я</tspan>
  </text>
  <g>
    <ellipse style="fill: #ffffff" cx="360.9" cy="201.7" rx="19.5" ry="19.5"/>
    <ellipse style="fill: none; fill-opacity:0; stroke-width: 2; stroke: #000000" cx="360.9" cy="201.7" rx="19.5" ry="19.5"/>
    <ellipse style="fill: none; fill-opacity:0; stroke-width: 2; stroke: #000000" cx="360.9" cy="201.7" rx="19.5" ry="19.5"/>
  </g>
  <text font-size="12.7998" style="fill: #000000;text-anchor:start;font-family:sans-serif;font-style:normal;font-weight:normal" x="360.9" y="201.7">
    <tspan x="360.9" y="201.7"></tspan>
  </text>
  <text font-size="12.7998" style="fill: #000000;text-anchor:start;font-family:sans-serif;font-style:normal;font-weight:normal" x="360.9" y="201.7">
    <tspan x="360.9" y="201.7"></tspan>
  </text>
  <text font-size="17.8813" style="fill: #000000;text-anchor:start;font-family:sans-serif;font-style:normal;font-weight:normal" x="354.65" y="207.45">
    <tspan x="354.65" y="207.45">Е</tspan>
  </text>
  <g>
    <ellipse style="fill: #ffffff" cx="360.2" cy="268.6" rx="19.5" ry="19.5"/>
    <ellipse style="fill: none; fill-opacity:0; stroke-width: 2; stroke: #000000" cx="360.2" cy="268.6" rx="19.5" ry="19.5"/>
    <ellipse style="fill: none; fill-opacity:0; stroke-width: 2; stroke: #000000" cx="360.2" cy="268.6" rx="19.5" ry="19.5"/>
  </g>
  <text font-size="12.7998" style="fill: #000000;text-anchor:start;font-family:sans-serif;font-style:normal;font-weight:normal" x="360.2" y="268.6">
    <tspan x="360.2" y="268.6"></tspan>
  </text>
  <text font-size="12.7998" style="fill: #000000;text-anchor:start;font-family:sans-serif;font-style:normal;font-weight:normal" x="360.2" y="268.6">
    <tspan x="360.2" y="268.6"></tspan>
  </text>
  <text font-size="17.8813" style="fill: #000000;text-anchor:start;font-family:sans-serif;font-style:normal;font-weight:normal" x="353.95" y="274.35">
    <tspan x="353.95" y="274.35">С</tspan>
  </text>
  <g>
    <ellipse style="fill: #ffffff" cx="408.8" cy="320.4" rx="19.5" ry="19.5"/>
    <ellipse style="fill: none; fill-opacity:0; stroke-width: 2; stroke: #000000" cx="408.8" cy="320.4" rx="19.5" ry="19.5"/>
    <ellipse style="fill: none; fill-opacity:0; stroke-width: 2; stroke: #000000" cx="408.8" cy="320.4" rx="19.5" ry="19.5"/>
  </g>
  <text font-size="12.7998" style="fill: #000000;text-anchor:start;font-family:sans-serif;font-style:normal;font-weight:normal" x="408.8" y="320.4">
    <tspan x="408.8" y="320.4"></tspan>
  </text>
  <text font-size="12.7998" style="fill: #000000;text-anchor:start;font-family:sans-serif;font-style:normal;font-weight:normal" x="408.8" y="320.4">
    <tspan x="408.8" y="320.4"></tspan>
  </text>
  <text font-size="17.8813" style="fill: #000000;text-anchor:start;font-family:sans-serif;font-style:normal;font-weight:normal" x="402.55" y="326.15">
    <tspan x="402.55" y="326.15">Т</tspan>
  </text>
  <g>
    <ellipse style="fill: #ffffff" cx="406.402" cy="390.2" rx="19.5" ry="19.5"/>
    <ellipse style="fill: none; fill-opacity:0; stroke-width: 2; stroke: #000000" cx="406.402" cy="390.2" rx="19.5" ry="19.5"/>
    <ellipse style="fill: none; fill-opacity:0; stroke-width: 2; stroke: #000000" cx="406.402" cy="390.2" rx="19.5" ry="19.5"/>
  </g>
  <text font-size="12.7998" style="fill: #000000;text-anchor:start;font-family:sans-serif;font-style:normal;font-weight:normal" x="406.402" y="409.7">
    <tspan x="406.402" y="409.7"></tspan>
  </text>
  <text font-size="12.7998" style="fill: #000000;text-anchor:start;font-family:sans-serif;font-style:normal;font-weight:normal" x="406.402" y="409.7">
    <tspan x="406.402" y="409.7"></tspan>
  </text>
  <text font-size="17.8813" style="fill: #000000;text-anchor:start;font-family:sans-serif;font-style:normal;font-weight:normal" x="400.152" y="396.95">
    <tspan x="400.152" y="396.95">О</tspan>
  </text>
  <g>
    <line style="fill: none; fill-opacity:0; stroke-width: 2; stroke: #000000" x1="458.055" y1="82.4118" x2="388.012" y2="116.253"/>
    <polygon style="fill: #000000" points="381.259,119.515 388.088,110.663 388.012,116.253 392.438,119.667 "/>
    <polygon style="fill: none; fill-opacity:0; stroke-width: 2; stroke: #000000" points="381.259,119.515 388.088,110.663 388.012,116.253 392.438,119.667 "/>
  </g>
  <g>
    <line style="fill: none; fill-opacity:0; stroke-width: 2; stroke: #000000" x1="475.867" y1="93.9934" x2="475.401" y2="109.069"/>
    <polygon style="fill: #000000" points="475.169,116.565 470.48,106.415 475.401,109.069 480.476,106.724 "/>
    <polygon style="fill: none; fill-opacity:0; stroke-width: 2; stroke: #000000" points="475.169,116.565 470.48,106.415 475.401,109.069 480.476,106.724 "/>
  </g>
  <g>
    <line style="fill: none; fill-opacity:0; stroke-width: 2; stroke: #000000" x1="494.269" y1="83.736" x2="552.195" y2="117.104"/>
    <polygon style="fill: #000000" points="558.693,120.848 547.532,120.189 552.195,117.104 552.524,111.524 "/>
    <polygon style="fill: none; fill-opacity:0; stroke-width: 2; stroke: #000000" points="558.693,120.848 547.532,120.189 552.195,117.104 552.524,111.524 "/>
  </g>
  <g>
    <line style="fill: none; fill-opacity:0; stroke-width: 2; stroke: #000000" x1="360.839" y1="149.903" x2="360.882" y2="172.464"/>
    <polygon style="fill: #000000" points="360.896,179.964 355.877,169.973 360.882,172.464 365.877,169.954 "/>
    <polygon style="fill: none; fill-opacity:0; stroke-width: 2; stroke: #000000" points="360.896,179.964 355.877,169.973 360.882,172.464 365.877,169.954 "/>
  </g>
  <g>
    <line style="fill: none; fill-opacity:0; stroke-width: 2; stroke: #000000" x1="578.4" y1="151.7" x2="577.608" y2="176.669"/>
    <polygon style="fill: #000000" points="577.371,184.165 572.69,174.012 577.608,176.669 582.685,174.328 "/>
    <polygon style="fill: none; fill-opacity:0; stroke-width: 2; stroke: #000000" points="577.371,184.165 572.69,174.012 577.608,176.669 582.685,174.328 "/>
  </g>
  <g>
    <line style="fill: none; fill-opacity:0; stroke-width: 2; stroke: #000000" x1="595.154" y1="144.2" x2="624.531" y2="180.341"/>
    <polygon style="fill: #000000" points="629.262,186.161 619.074,181.555 624.531,180.341 626.834,175.247 "/>
    <polygon style="fill: none; fill-opacity:0; stroke-width: 2; stroke: #000000" points="629.262,186.161 619.074,181.555 624.531,180.341 626.834,175.247 "/>
  </g>
  <g>
    <line style="fill: none; fill-opacity:0; stroke-width: 2; stroke: #000000" x1="489.141" y1="226.572" x2="506.174" y2="246.179"/>
    <polygon style="fill: #000000" points="511.093,251.84 500.76,247.57 506.174,246.179 508.309,241.012 "/>
    <polygon style="fill: none; fill-opacity:0; stroke-width: 2; stroke: #000000" points="511.093,251.84 500.76,247.57 506.174,246.179 508.309,241.012 "/>
  </g>
  <g>
    <line style="fill: none; fill-opacity:0; stroke-width: 2; stroke: #000000" x1="360.9" y1="221.2" x2="360.444" y2="239.367"/>
    <polygon style="fill: #000000" points="360.256,246.865 355.508,236.742 360.444,239.367 365.505,236.993 "/>
    <polygon style="fill: none; fill-opacity:0; stroke-width: 2; stroke: #000000" points="360.256,246.865 355.508,236.742 360.444,239.367 365.505,236.993 "/>
  </g>
  <g>
    <line style="fill: none; fill-opacity:0; stroke-width: 2; stroke: #000000" x1="374.231" y1="283.554" x2="388.108" y2="298.345"/>
    <polygon style="fill: #000000" points="393.239,303.815 382.751,299.943 388.108,298.345 390.044,293.101 "/>
    <polygon style="fill: none; fill-opacity:0; stroke-width: 2; stroke: #000000" points="393.239,303.815 382.751,299.943 388.108,298.345 390.044,293.101 "/>
  </g>
  <g>
    <line style="fill: none; fill-opacity:0; stroke-width: 2; stroke: #000000" x1="408.8" y1="339.9" x2="407.841" y2="360.016"/>
    <polygon style="fill: #000000" points="407.484,367.508 402.966,357.281 407.841,360.016 412.954,357.757 "/>
    <polygon style="fill: none; fill-opacity:0; stroke-width: 2; stroke: #000000" points="407.484,367.508 402.966,357.281 407.841,360.016 412.954,357.757 "/>
  </g>
  <g>
    <line style="fill: none; fill-opacity:0; stroke-width: 2; stroke: #000000" x1="475.1" y1="157.8" x2="475.527" y2="181.865"/>
    <polygon style="fill: #000000" points="475.66,189.364 470.484,179.455 475.527,181.865 480.482,179.277 "/>
    <polygon style="fill: none; fill-opacity:0; stroke-width: 2; stroke: #000000" points="475.66,189.364 470.484,179.455 475.527,181.865 480.482,179.277 "/>
  </g>
</svg>
