<?xml version="1.0" encoding="UTF-8" standalone="no"?>
<!DOCTYPE svg PUBLIC "-//W3C//DTD SVG 1.0//EN" "http://www.w3.org/TR/2001/PR-SVG-20010719/DTD/svg10.dtd">
<svg width="21cm" height="23cm" viewBox="339 59 401 441" xmlns="http://www.w3.org/2000/svg" xmlns:xlink="http://www.w3.org/1999/xlink">
  <g>
    <ellipse style="fill: #ffffff" cx="479.5" cy="79.5" rx="19.5" ry="19.5"/>
    <ellipse style="fill: none; fill-opacity:0; stroke-width: 2; stroke: #000000" cx="479.5" cy="79.5" rx="19.5" ry="19.5"/>
    <ellipse style="fill: none; fill-opacity:0; stroke-width: 2; stroke: #000000" cx="479.5" cy="79.5" rx="19.5" ry="19.5"/>
  </g>
  <text font-size="12.8" style="fill: #000000;text-anchor:start;font-family:sans-serif;font-style:normal;font-weight:normal" x="479.5" y="79.5">
    <tspan x="479.5" y="79.5"></tspan>
  </text>
  <text font-size="12.8" style="fill: #000000;text-anchor:start;font-family:sans-serif;font-style:normal;font-weight:normal" x="479.5" y="79.5">
    <tspan x="479.5" y="79.5"></tspan>
  </text>
  <text font-size="17.8816" style="fill: #000000;text-anchor:start;font-family:sans-serif;font-style:normal;font-weight:normal" x="473.25" y="85.25">
    <tspan x="473.25" y="85.25">О</tspan>
  </text>
  <g>
    <ellipse style="fill: #ffffff" cx="359.5" cy="159.5" rx="19.5" ry="19.5"/>
    <ellipse style="fill: none; fill-opacity:0; stroke-width: 2; stroke: #000000" cx="359.5" cy="159.5" rx="19.5" ry="19.5"/>
    <ellipse style="fill: none; fill-opacity:0; stroke-width: 2; stroke: #000000" cx="359.5" cy="159.5" rx="19.5" ry="19.5"/>
  </g>
  <text font-size="12.8" style="fill: #000000;text-anchor:start;font-family:sans-serif;font-style:normal;font-weight:normal" x="359.5" y="159.5">
    <tspan x="359.5" y="159.5"></tspan>
  </text>
  <text font-size="12.8" style="fill: #000000;text-anchor:start;font-family:sans-serif;font-style:normal;font-weight:normal" x="359.5" y="159.5">
    <tspan x="359.5" y="159.5"></tspan>
  </text>
  <text font-size="17.8816" style="fill: #000000;text-anchor:start;font-family:sans-serif;font-style:normal;font-weight:normal" x="353.25" y="165.25">
    <tspan x="353.25" y="165.25">Л</tspan>
  </text>
  <g>
    <ellipse style="fill: #ffffff" cx="479.5" cy="159.5" rx="19.5" ry="19.5"/>
    <ellipse style="fill: none; fill-opacity:0; stroke-width: 2; stroke: #000000" cx="479.5" cy="159.5" rx="19.5" ry="19.5"/>
    <ellipse style="fill: none; fill-opacity:0; stroke-width: 2; stroke: #000000" cx="479.5" cy="159.5" rx="19.5" ry="19.5"/>
  </g>
  <text font-size="12.8" style="fill: #000000;text-anchor:start;font-family:sans-serif;font-style:normal;font-weight:normal" x="479.5" y="159.5">
    <tspan x="479.5" y="159.5"></tspan>
  </text>
  <text font-size="12.8" style="fill: #000000;text-anchor:start;font-family:sans-serif;font-style:normal;font-weight:normal" x="479.5" y="159.5">
    <tspan x="479.5" y="159.5"></tspan>
  </text>
  <text font-size="17.8816" style="fill: #000000;text-anchor:start;font-family:sans-serif;font-style:normal;font-weight:normal" x="473.25" y="165.25">
    <tspan x="473.25" y="165.25">Н</tspan>
  </text>
  <g>
    <ellipse style="fill: #ffffff" cx="599.5" cy="159.5" rx="19.5" ry="19.5"/>
    <ellipse style="fill: none; fill-opacity:0; stroke-width: 2; stroke: #000000" cx="599.5" cy="159.5" rx="19.5" ry="19.5"/>
    <ellipse style="fill: none; fill-opacity:0; stroke-width: 2; stroke: #000000" cx="599.5" cy="159.5" rx="19.5" ry="19.5"/>
  </g>
  <text font-size="12.8" style="fill: #000000;text-anchor:start;font-family:sans-serif;font-style:normal;font-weight:normal" x="599.5" y="159.5">
    <tspan x="599.5" y="159.5"></tspan>
  </text>
  <text font-size="12.8" style="fill: #000000;text-anchor:start;font-family:sans-serif;font-style:normal;font-weight:normal" x="599.5" y="159.5">
    <tspan x="599.5" y="159.5"></tspan>
  </text>
  <text font-size="17.8816" style="fill: #000000;text-anchor:start;font-family:sans-serif;font-style:normal;font-weight:normal" x="593.25" y="165.25">
    <tspan x="593.25" y="165.25">Т</tspan>
  </text>
  <g>
    <ellipse style="fill: #ffffff" cx="479.5" cy="239.5" rx="19.5" ry="19.5"/>
    <ellipse style="fill: none; fill-opacity:0; stroke-width: 2; stroke: #000000" cx="479.5" cy="239.5" rx="19.5" ry="19.5"/>
    <ellipse style="fill: none; fill-opacity:0; stroke-width: 2; stroke: #000000" cx="479.5" cy="239.5" rx="19.5" ry="19.5"/>
  </g>
  <text font-size="12.8" style="fill: #000000;text-anchor:start;font-family:sans-serif;font-style:normal;font-weight:normal" x="479.5" y="239.5">
    <tspan x="479.5" y="239.5"></tspan>
  </text>
  <text font-size="12.8" style="fill: #000000;text-anchor:start;font-family:sans-serif;font-style:normal;font-weight:normal" x="479.5" y="239.5">
    <tspan x="479.5" y="239.5"></tspan>
  </text>
  <text font-size="17.8816" style="fill: #000000;text-anchor:start;font-family:sans-serif;font-style:normal;font-weight:normal" x="473.25" y="245.25">
    <tspan x="473.25" y="245.25">А</tspan>
  </text>
  <g>
    <ellipse style="fill: #ffffff" cx="599.5" cy="319.5" rx="19.5" ry="19.5"/>
    <ellipse style="fill: none; fill-opacity:0; stroke-width: 2; stroke: #000000" cx="599.5" cy="319.5" rx="19.5" ry="19.5"/>
    <ellipse style="fill: none; fill-opacity:0; stroke-width: 2; stroke: #000000" cx="599.5" cy="319.5" rx="19.5" ry="19.5"/>
  </g>
  <text font-size="12.8" style="fill: #000000;text-anchor:start;font-family:sans-serif;font-style:normal;font-weight:normal" x="599.5" y="319.5">
    <tspan x="599.5" y="319.5"></tspan>
  </text>
  <text font-size="12.8" style="fill: #000000;text-anchor:start;font-family:sans-serif;font-style:normal;font-weight:normal" x="599.5" y="319.5">
    <tspan x="599.5" y="319.5"></tspan>
  </text>
  <text font-size="17.8816" style="fill: #000000;text-anchor:start;font-family:sans-serif;font-style:normal;font-weight:normal" x="593.25" y="325.25">
    <tspan x="593.25" y="325.25">И</tspan>
  </text>
  <g>
    <ellipse style="fill: #ffffff" cx="599.5" cy="239.5" rx="19.5" ry="19.5"/>
    <ellipse style="fill: none; fill-opacity:0; stroke-width: 2; stroke: #000000" cx="599.5" cy="239.5" rx="19.5" ry="19.5"/>
    <ellipse style="fill: none; fill-opacity:0; stroke-width: 2; stroke: #000000" cx="599.5" cy="239.5" rx="19.5" ry="19.5"/>
  </g>
  <text font-size="12.8" style="fill: #000000;text-anchor:start;font-family:sans-serif;font-style:normal;font-weight:normal" x="599.5" y="239.5">
    <tspan x="599.5" y="239.5"></tspan>
  </text>
  <text font-size="12.8" style="fill: #000000;text-anchor:start;font-family:sans-serif;font-style:normal;font-weight:normal" x="599.5" y="239.5">
    <tspan x="599.5" y="239.5"></tspan>
  </text>
  <text font-size="17.8816" style="fill: #000000;text-anchor:start;font-family:sans-serif;font-style:normal;font-weight:normal" x="593.25" y="245.25">
    <tspan x="593.25" y="245.25">Ы</tspan>
  </text>
  <g>
    <ellipse style="fill: #ffffff" cx="719.5" cy="239.5" rx="19.5" ry="19.5"/>
    <ellipse style="fill: none; fill-opacity:0; stroke-width: 2; stroke: #000000" cx="719.5" cy="239.5" rx="19.5" ry="19.5"/>
    <ellipse style="fill: none; fill-opacity:0; stroke-width: 2; stroke: #000000" cx="719.5" cy="239.5" rx="19.5" ry="19.5"/>
  </g>
  <text font-size="12.8" style="fill: #000000;text-anchor:start;font-family:sans-serif;font-style:normal;font-weight:normal" x="719.5" y="239.5">
    <tspan x="719.5" y="239.5"></tspan>
  </text>
  <text font-size="12.8" style="fill: #000000;text-anchor:start;font-family:sans-serif;font-style:normal;font-weight:normal" x="719.5" y="239.5">
    <tspan x="719.5" y="239.5"></tspan>
  </text>
  <text font-size="17.8816" style="fill: #000000;text-anchor:start;font-family:sans-serif;font-style:normal;font-weight:normal" x="713.25" y="245.25">
    <tspan x="713.25" y="245.25">Я</tspan>
  </text>
  <g>
    <ellipse style="fill: #ffffff" cx="359.5" cy="239.5" rx="19.5" ry="19.5"/>
    <ellipse style="fill: none; fill-opacity:0; stroke-width: 2; stroke: #000000" cx="359.5" cy="239.5" rx="19.5" ry="19.5"/>
    <ellipse style="fill: none; fill-opacity:0; stroke-width: 2; stroke: #000000" cx="359.5" cy="239.5" rx="19.5" ry="19.5"/>
  </g>
  <text font-size="12.8" style="fill: #000000;text-anchor:start;font-family:sans-serif;font-style:normal;font-weight:normal" x="359.5" y="239.5">
    <tspan x="359.5" y="239.5"></tspan>
  </text>
  <text font-size="12.8" style="fill: #000000;text-anchor:start;font-family:sans-serif;font-style:normal;font-weight:normal" x="359.5" y="239.5">
    <tspan x="359.5" y="239.5"></tspan>
  </text>
  <text font-size="17.8816" style="fill: #000000;text-anchor:start;font-family:sans-serif;font-style:normal;font-weight:normal" x="353.25" y="245.25">
    <tspan x="353.25" y="245.25">Е</tspan>
  </text>
  <g>
    <ellipse style="fill: #ffffff" cx="359.5" cy="319.5" rx="19.5" ry="19.5"/>
    <ellipse style="fill: none; fill-opacity:0; stroke-width: 2; stroke: #000000" cx="359.5" cy="319.5" rx="19.5" ry="19.5"/>
    <ellipse style="fill: none; fill-opacity:0; stroke-width: 2; stroke: #000000" cx="359.5" cy="319.5" rx="19.5" ry="19.5"/>
  </g>
  <text font-size="12.8" style="fill: #000000;text-anchor:start;font-family:sans-serif;font-style:normal;font-weight:normal" x="359.5" y="319.5">
    <tspan x="359.5" y="319.5"></tspan>
  </text>
  <text font-size="12.8" style="fill: #000000;text-anchor:start;font-family:sans-serif;font-style:normal;font-weight:normal" x="359.5" y="319.5">
    <tspan x="359.5" y="319.5"></tspan>
  </text>
  <text font-size="17.8816" style="fill: #000000;text-anchor:start;font-family:sans-serif;font-style:normal;font-weight:normal" x="353.25" y="325.25">
    <tspan x="353.25" y="325.25">С</tspan>
  </text>
  <g>
    <ellipse style="fill: #ffffff" cx="479.5" cy="399.5" rx="19.5" ry="19.5"/>
    <ellipse style="fill: none; fill-opacity:0; stroke-width: 2; stroke: #000000" cx="479.5" cy="399.5" rx="19.5" ry="19.5"/>
    <ellipse style="fill: none; fill-opacity:0; stroke-width: 2; stroke: #000000" cx="479.5" cy="399.5" rx="19.5" ry="19.5"/>
  </g>
  <text font-size="12.8" style="fill: #000000;text-anchor:start;font-family:sans-serif;font-style:normal;font-weight:normal" x="479.5" y="399.5">
    <tspan x="479.5" y="399.5"></tspan>
  </text>
  <text font-size="12.8" style="fill: #000000;text-anchor:start;font-family:sans-serif;font-style:normal;font-weight:normal" x="479.5" y="399.5">
    <tspan x="479.5" y="399.5"></tspan>
  </text>
  <text font-size="17.8816" style="fill: #000000;text-anchor:start;font-family:sans-serif;font-style:normal;font-weight:normal" x="473.25" y="405.25">
    <tspan x="473.25" y="405.25">Т</tspan>
  </text>
  <g>
    <ellipse style="fill: #ffffff" cx="479.5" cy="479.5" rx="19.5" ry="19.5"/>
    <ellipse style="fill: none; fill-opacity:0; stroke-width: 2; stroke: #000000" cx="479.5" cy="479.5" rx="19.5" ry="19.5"/>
    <ellipse style="fill: none; fill-opacity:0; stroke-width: 2; stroke: #000000" cx="479.5" cy="479.5" rx="19.5" ry="19.5"/>
  </g>
  <text font-size="12.8" style="fill: #000000;text-anchor:start;font-family:sans-serif;font-style:normal;font-weight:normal" x="479.5" y="499">
    <tspan x="479.5" y="499"></tspan>
  </text>
  <text font-size="12.8" style="fill: #000000;text-anchor:start;font-family:sans-serif;font-style:normal;font-weight:normal" x="479.5" y="499">
    <tspan x="479.5" y="499"></tspan>
  </text>
  <text font-size="17.8816" style="fill: #000000;text-anchor:start;font-family:sans-serif;font-style:normal;font-weight:normal" x="473.25" y="486.25">
    <tspan x="473.25" y="486.25">О</tspan>
  </text>
  <g>
    <line style="fill: none; fill-opacity:0; stroke-width: 2; stroke: #000000" x1="462.442" y1="90.8721" x2="384.659" y2="142.727"/>
    <polygon style="fill: #000000" points="378.419,146.888 383.966,137.18 384.659,142.727 389.513,145.501 "/>
    <polygon style="fill: none; fill-opacity:0; stroke-width: 2; stroke: #000000" points="378.419,146.888 383.966,137.18 384.659,142.727 389.513,145.501 "/>
  </g>
  <g>
    <line style="fill: none; fill-opacity:0; stroke-width: 2; stroke: #000000" x1="479.5" y1="99.9719" x2="479.5" y2="130.264"/>
    <polygon style="fill: #000000" points="479.5,137.764 474.5,127.764 479.5,130.264 484.5,127.764 "/>
    <polygon style="fill: none; fill-opacity:0; stroke-width: 2; stroke: #000000" points="479.5,137.764 474.5,127.764 479.5,130.264 484.5,127.764 "/>
  </g>
  <g>
    <line style="fill: none; fill-opacity:0; stroke-width: 2; stroke: #000000" x1="496.558" y1="90.8721" x2="574.341" y2="142.727"/>
    <polygon style="fill: #000000" points="580.581,146.888 569.487,145.501 574.341,142.727 575.034,137.18 "/>
    <polygon style="fill: none; fill-opacity:0; stroke-width: 2; stroke: #000000" points="580.581,146.888 569.487,145.501 574.341,142.727 575.034,137.18 "/>
  </g>
  <g>
    <line style="fill: none; fill-opacity:0; stroke-width: 2; stroke: #000000" x1="359.5" y1="179.972" x2="359.5" y2="210.264"/>
    <polygon style="fill: #000000" points="359.5,217.764 354.5,207.764 359.5,210.264 364.5,207.764 "/>
    <polygon style="fill: none; fill-opacity:0; stroke-width: 2; stroke: #000000" points="359.5,217.764 354.5,207.764 359.5,210.264 364.5,207.764 "/>
  </g>
  <g>
    <line style="fill: none; fill-opacity:0; stroke-width: 2; stroke: #000000" x1="599.5" y1="179" x2="599.5" y2="210.264"/>
    <polygon style="fill: #000000" points="599.5,217.764 594.5,207.764 599.5,210.264 604.5,207.764 "/>
    <polygon style="fill: none; fill-opacity:0; stroke-width: 2; stroke: #000000" points="599.5,217.764 594.5,207.764 599.5,210.264 604.5,207.764 "/>
  </g>
  <g>
    <line style="fill: none; fill-opacity:0; stroke-width: 2; stroke: #000000" x1="616.558" y1="170.872" x2="694.341" y2="222.727"/>
    <polygon style="fill: #000000" points="700.581,226.888 689.487,225.501 694.341,222.727 695.034,217.18 "/>
    <polygon style="fill: none; fill-opacity:0; stroke-width: 2; stroke: #000000" points="700.581,226.888 689.487,225.501 694.341,222.727 695.034,217.18 "/>
  </g>
  <g>
    <line style="fill: none; fill-opacity:0; stroke-width: 2; stroke: #000000" x1="496.558" y1="250.872" x2="574.341" y2="302.727"/>
    <polygon style="fill: #000000" points="580.581,306.888 569.487,305.501 574.341,302.727 575.034,297.18 "/>
    <polygon style="fill: none; fill-opacity:0; stroke-width: 2; stroke: #000000" points="580.581,306.888 569.487,305.501 574.341,302.727 575.034,297.18 "/>
  </g>
  <g>
    <line style="fill: none; fill-opacity:0; stroke-width: 2; stroke: #000000" x1="359.5" y1="259" x2="359.5" y2="290.264"/>
    <polygon style="fill: #000000" points="359.5,297.764 354.5,287.764 359.5,290.264 364.5,287.764 "/>
    <polygon style="fill: none; fill-opacity:0; stroke-width: 2; stroke: #000000" points="359.5,297.764 354.5,287.764 359.5,290.264 364.5,287.764 "/>
  </g>
  <g>
    <line style="fill: none; fill-opacity:0; stroke-width: 2; stroke: #000000" x1="376.558" y1="330.872" x2="454.341" y2="382.727"/>
    <polygon style="fill: #000000" points="460.581,386.888 449.487,385.501 454.341,382.727 455.034,377.18 "/>
    <polygon style="fill: none; fill-opacity:0; stroke-width: 2; stroke: #000000" points="460.581,386.888 449.487,385.501 454.341,382.727 455.034,377.18 "/>
  </g>
  <g>
    <line style="fill: none; fill-opacity:0; stroke-width: 2; stroke: #000000" x1="479.5" y1="419" x2="479.5" y2="449.292"/>
    <polygon style="fill: #000000" points="479.5,456.792 474.5,446.792 479.5,449.292 484.5,446.792 "/>
    <polygon style="fill: none; fill-opacity:0; stroke-width: 2; stroke: #000000" points="479.5,456.792 474.5,446.792 479.5,449.292 484.5,446.792 "/>
  </g>
  <g>
    <line style="fill: none; fill-opacity:0; stroke-width: 2; stroke: #000000" x1="479.5" y1="179" x2="479.5" y2="210.264"/>
    <polygon style="fill: #000000" points="479.5,217.764 474.5,207.764 479.5,210.264 484.5,207.764 "/>
    <polygon style="fill: none; fill-opacity:0; stroke-width: 2; stroke: #000000" points="479.5,217.764 474.5,207.764 479.5,210.264 484.5,207.764 "/>
  </g>
</svg>
